<svg xmlns="http://www.w3.org/2000/svg" version="1.1" id="SVGRoot" viewBox="0 0 16 16">
  <g id="layer1">
    <path d="M5.4403 12.9886c-1.3639-.7564-2.4928-1.3883-2.5088-1.4043-.0334-.0334-.9206-7.6153-.9079-7.7582l.0084-.0939 2.951-1.0499c2.4231-.862 2.9641-1.0443 3.024-1.0187.0402.017 1.3906.4794 3.001 1.0273 1.6104.5478 2.94 1.0073 2.9547 1.021.0147.0136-.194 1.7823-.464 3.9304l-.4907 3.9057-2.32 1.2829c-1.276.7056-2.4208 1.3391-2.544 1.4079l-.224.125zm6.3037-1.6665c0-.0208-.5166-1.1404-1.148-2.488-.6315-1.3475-1.4904-3.1811-1.9088-4.0747-.4184-.8935-.7646-1.6207-.7693-1.616-.0152.0154-3.6264 8.059-3.6466 8.1227-.0188.0593.0003.0619.4545.0617.2608-.0002.5679-.0091.6824-.02l.2082-.0196.3678-.9161.3678-.9161L8 9.4478l1.648-.0081.4027.9361.4028.9362.6212.017c.3417.0095.6321.0202.6453.024.0132.0039.024-.01.024-.0309zM6.9949 8.008c.0794-.1892.32-.765.5347-1.2797.2147-.5146.3976-.9353.4064-.935.0142.0007 1.148 2.3623 1.2015 2.5027.02.0527-.0468.056-1.1328.056H6.8505z" id="path5106" fill="#01069b" stroke-width=".032" fill-opacity=".4706"/>
  </g>
</svg>
