<svg xmlns="http://www.w3.org/2000/svg" version="1.1" id="SVGRoot" viewBox="0 0 16 16">
  <g id="layer1">
    <path d="M7.312 14.3648c-.6612-.069-1.557-.3374-2.176-.6523-.7155-.364-1.2009-.7202-1.7247-1.266-.9489-.9886-1.5264-2.1523-1.7382-3.5025-.0749-.4776-.0738-1.4743.0021-1.92.118-.6931.2931-1.2373.597-1.856.6366-1.2958 1.681-2.3225 3.0029-2.9523 1.703-.8113 3.7467-.8113 5.4498 0 1.322.6298 2.3663 1.6565 3.0029 2.9523.3046.62.4807 1.1683.5962 1.856.068.4043.077 1.41.0165 1.84-.0506.36-.2226 1.0484-.3378 1.3517-.6964 1.8338-2.1467 3.2365-3.9707 3.8404-.905.2997-1.8154.403-2.72.3087zm-2.5587-4.781c.2877-.0729.6334-.2603.8533-.4625l.1967-.181.1085.12c.1897.2101.4489.2385.648.071l.0976-.0822.0647.0823c.099.1257.2475.1389.4616.0408.0987-.0452.2206-.1114.2708-.1472.0503-.0357.0964-.065.1024-.065.0061 0 .0111.0611.0111.136 0 .125.0072.1368.089.1462.1444.0166.2912-.1564.3385-.3986.0464-.2381.2173-.516.4353-.7079.1388-.1221.2412-.171.2412-.115 0 .0114-.0424.153-.0942.3148-.1298.4051-.148.5794-.0754.7205.0837.1627.2014.2094.4103.1626.172-.0385.4158-.1734.563-.3116l.0835-.0786.022.1378c.0277.173.0973.2818.1806.2818.181 0 .4955-.2404.7746-.592.106-.1335.149-.1632.2593-.179.0728-.0106.1556-.0294.1841-.042.0451-.0197.0514.0056.048.1952-.003.1765.0103.2404.0705.3372.1834.295.5015.3658.7406.1646.0549-.0462.1028-.0786.1065-.072.0037.0066.0354.0684.0706.1374.066.1293.2394.2862.352.3187.089.0256.1696-.029.128-.0867-.1748-.2426-.171-.2168-.1353-.9174.0068-.1336.0013-.1447-.0762-.1537-.1159-.0134-.2642.1197-.3123.2803-.0592.1974-.2104.3534-.3427.3534-.1462 0-.2196-.1348-.2177-.4.0028-.4044.2617-.752.56-.752.1977 0 .2959.1969.1482.297-.1003.0681-.0316.1335.1403.1335.352 0 .384-.4782.0395-.5919-.3252-.1073-.6643-.0118-.967.2724-.2314.217-.3172.273-.4187.273-.0797 0-.0795.02-.0021-.2003.0918-.261.0854-.4734-.018-.5962-.2278-.2708-.6247-.0714-.688.3457-.0295.194.034.4298.1474.5483l.0898.0937-.1163.1689c-.132.1915-.3326.3968-.3606.3689-.0103-.0103-.033-.1217-.0504-.2477-.034-.245.0026-.6022.0857-.8377.073-.207.0003-.2851-.1798-.1933-.2044.1043-.2836.2946-.285.6846-.0007.1914-.011.2265-.0946.3217-.116.132-.3942.2873-.4905.2736-.0652-.0093-.0712-.0262-.0658-.1862.0032-.0968.0572-.345.12-.5516.0627-.2066.1141-.4043.1141-.4393 0-.035-.0367-.0876-.0815-.117-.07-.0459-.0998-.0479-.213-.014-.1647.0494-.3437.1615-.5252.3287-.1508.139-.1598.131-.1039-.091.0473-.188-.0056-.2547-.1762-.2227-.1715.0322-.2212.1244-.305.566-.084.4426-.1116.4903-.3712.64-.2779.1603-.3246.122-.2553-.2092.0526-.2513.0384-.3059-.0798-.3059-.1304 0-.2452.1083-.3047.2874-.1083.326-.3477.4534-.4972.2646-.0612-.0772-.068-.1176-.056-.3292.0163-.2884.1345-.5382.3115-.6585.1187-.0806.2834-.099.3876-.0432.0847.0454.0834.2091-.0021.2549-.0839.0449-.081.0863.0079.1145.2284.0725.4081-.041.4081-.258 0-.3353-.4804-.4684-.9185-.2546-.3174.155-.5855.5593-.5855.883 0 .1125-.0188.1479-.136.2562-.0748.0692-.2566.186-.404.2595-.4649.232-.8521.2027-1.1172-.0849-.2003-.2173-.2746-.4498-.2724-.8517.003-.5276.1672-1.027.5048-1.5348.2781-.4184.677-.7372.9223-.7372.1475 0 .3089.1817.3168.3568.0177.3892-.02.5142-.211.6997-.208.2023-.1171.292.16.158.2999-.1453.4888-.4646.4486-.7583-.0375-.2734-.1822-.4665-.4359-.5815-.7443-.3374-1.843.6163-2.163 1.8776-.2378.9379.0962 1.7217.8167 1.916.199.0536.3382.0525.5636-.0046zm5.7456-1.6579c-.1004-.2074-.085-.4059.0314-.4059.0327 0 .0744.0279.0926.0619.0574.1073.0327.4821-.0318.4821-.014 0-.0555-.0621-.0922-.1381z" id="path5684" fill="#01069b" stroke-width=".032" fill-opacity="1"/>
  </g>
</svg>
