<?xml version="1.0" encoding="UTF-8"?>
<svg xmlns="http://www.w3.org/2000/svg" xmlns:xlink="http://www.w3.org/1999/xlink" width="375pt" height="374.999991pt" viewBox="0 0 375 374.999991" version="1.2">
<defs>
<clipPath id="clip1">
  <path d="M 37.5 37 L 337.5 37 L 337.5 337.703125 L 37.5 337.703125 Z M 37.5 37 "/>
</clipPath>
</defs>
<g id="surface1">
<g clip-path="url(#clip1)" clip-rule="nonzero">
<path style=" stroke:none;fill-rule:nonzero;fill:rgb(81.17981%,52.549744%,9.01947%);fill-opacity:1;" d="M 337.277344 139.789062 C 337.207031 139.421875 337.148438 139.0625 337.042969 138.707031 C 336.984375 138.492188 336.914062 138.289062 336.84375 138.078125 C 336.75 137.765625 336.644531 137.453125 336.515625 137.144531 C 336.421875 136.929688 336.328125 136.722656 336.222656 136.519531 C 336.09375 136.226562 335.953125 135.941406 335.789062 135.664062 C 335.671875 135.457031 335.542969 135.261719 335.414062 135.066406 C 335.25 134.800781 335.0625 134.539062 334.875 134.28125 C 334.734375 134.09375 334.582031 133.910156 334.429688 133.730469 C 334.230469 133.488281 334.007812 133.257812 333.796875 133.03125 C 333.621094 132.863281 333.457031 132.691406 333.28125 132.527344 C 333.046875 132.3125 332.800781 132.113281 332.542969 131.917969 C 332.355469 131.769531 332.167969 131.617188 331.957031 131.476562 C 331.886719 131.425781 331.828125 131.367188 331.746094 131.316406 L 194.648438 40.011719 C 190.324219 37.125 184.675781 37.125 180.351562 40.011719 L 43.242188 131.3125 C 43.164062 131.359375 43.101562 131.421875 43.027344 131.472656 C 42.824219 131.617188 42.636719 131.765625 42.441406 131.914062 C 42.191406 132.113281 41.945312 132.3125 41.710938 132.519531 C 41.53125 132.679688 41.363281 132.847656 41.195312 133.023438 C 40.96875 133.25 40.761719 133.480469 40.554688 133.722656 C 40.402344 133.902344 40.253906 134.085938 40.113281 134.285156 C 39.921875 134.542969 39.742188 134.800781 39.570312 135.070312 C 39.441406 135.269531 39.316406 135.460938 39.199219 135.667969 C 39.039062 135.945312 38.898438 136.230469 38.765625 136.515625 C 38.667969 136.71875 38.5625 136.929688 38.476562 137.140625 C 38.351562 137.445312 38.242188 137.761719 38.140625 138.074219 C 38.074219 138.285156 38 138.492188 37.945312 138.679688 C 37.851562 139.035156 37.78125 139.394531 37.71875 139.761719 C 37.683594 139.949219 37.636719 140.128906 37.613281 140.320312 C 37.539062 140.875 37.5 141.433594 37.5 142.003906 L 37.5 233.316406 C 37.5 233.890625 37.539062 234.453125 37.621094 235.003906 C 37.648438 235.203125 37.703125 235.367188 37.742188 235.566406 C 37.808594 235.929688 37.863281 236.292969 37.984375 236.652344 C 38.042969 236.851562 38.105469 237.050781 38.1875 237.273438 C 38.289062 237.601562 38.390625 237.917969 38.511719 238.222656 C 38.59375 238.421875 38.710938 238.621094 38.792969 238.820312 C 38.925781 239.113281 39.074219 239.394531 39.238281 239.6875 C 39.351562 239.886719 39.480469 240.082031 39.601562 240.269531 C 39.773438 240.550781 39.964844 240.796875 40.167969 241.042969 C 40.308594 241.242188 40.449219 241.40625 40.609375 241.59375 C 40.816406 241.839844 41.015625 242.085938 41.257812 242.296875 C 41.421875 242.460938 41.582031 242.660156 41.78125 242.777344 C 42.015625 242.976562 42.265625 243.1875 42.507812 243.398438 C 42.703125 243.546875 42.914062 243.675781 43.074219 243.828125 C 43.152344 243.875 43.195312 243.957031 43.277344 243.992188 L 180.351562 335.34375 C 182.519531 336.792969 184.992188 337.519531 187.5 337.507812 C 190.007812 337.496094 192.480469 336.785156 194.648438 335.34375 L 331.757812 244.039062 C 331.839844 243.992188 331.898438 243.933594 331.96875 243.875 C 332.179688 243.734375 332.367188 243.59375 332.554688 243.445312 C 332.8125 243.246094 333.058594 243.035156 333.292969 242.824219 C 333.46875 242.671875 333.632812 242.496094 333.808594 242.332031 C 334.03125 242.097656 334.242188 241.875 334.441406 241.628906 C 334.59375 241.441406 334.746094 241.265625 334.886719 241.066406 C 335.074219 240.820312 335.261719 240.550781 335.425781 240.292969 C 335.554688 240.09375 335.683594 239.898438 335.800781 239.699219 C 335.964844 239.417969 336.105469 239.136719 336.234375 238.84375 C 336.339844 238.632812 336.433594 238.433594 336.527344 238.222656 C 336.65625 237.90625 336.761719 237.589844 336.855469 237.273438 C 336.925781 237.0625 336.996094 236.863281 337.054688 236.652344 C 337.148438 236.304688 337.21875 235.941406 337.289062 235.578125 C 337.3125 235.390625 337.371094 235.203125 337.382812 235.015625 C 337.464844 234.453125 337.5 233.902344 337.5 233.328125 L 337.5 142.027344 C 337.5 141.457031 337.453125 140.902344 337.382812 140.34375 C 337.359375 140.144531 337.289062 139.984375 337.253906 139.789062 Z M 187.5 218.136719 L 141.90625 187.679688 L 187.5 157.222656 L 233.085938 187.679688 Z M 174.609375 134.847656 L 118.71875 172.191406 L 73.605469 142.042969 L 174.609375 74.785156 Z M 95.535156 187.679688 L 63.289062 209.214844 L 63.289062 166.128906 Z M 118.71875 203.175781 L 174.609375 240.515625 L 174.609375 300.578125 L 73.605469 233.308594 Z M 200.390625 240.503906 L 256.277344 203.175781 L 301.394531 233.308594 L 200.390625 300.566406 Z M 279.457031 187.679688 L 311.707031 166.128906 L 311.707031 209.226562 Z M 256.277344 172.191406 L 200.390625 134.851562 L 200.390625 74.785156 L 301.394531 142.042969 Z M 256.277344 172.191406 "/>
</g>
</g>
</svg>
