<svg xmlns="http://www.w3.org/2000/svg" version="1.1" id="SVGRoot" viewBox="0 0 16 16">
  <g id="layer1">
    <path d="M5.745 13.7876c-1.1962-.3338-2.1803-.6123-2.187-.619-.01-.01-.9952-10.9552-.9973-11.0806C2.56 2.0562 3.669 2.048 8 2.048c5.1592 0 5.44.0029 5.441.056.0028.1438-.9747 11.035-.9922 11.056-.0264.0317-4.3957 1.2408-4.4707 1.2372-.032-.0015-1.0368-.2759-2.233-.6096zm3.6946-2.135l1.3597-.3789.2927-3.2768c.161-1.8023.301-3.3669.3111-3.4769l.0185-.2H4.5738l.018.152c.0183.1552.1119 1.1565.112 1.2.0002.0132 1.1755.024 2.6119.024h2.6117l-.0193.168c-.0106.0924-.0341.3552-.0524.584-.0182.2288-.0407.4628-.0499.52l-.0167.104H7.3106c-1.9614 0-2.4787.0083-2.4789.04-.0006.082.1003 1.1948.1146 1.264l.015.072H9.664l.0006.072c.0002.0396-.0316.4355-.0708.8798l-.0714.8077-.0972.0307c-.0535.017-.3985.1118-.7668.2108l-.6695.18-.7225-.1986c-.3973-.1092-.738-.2046-.757-.2119-.0203-.0078-.0535-.2347-.08-.5479L6.384 9.136l-.68-.0086-.68-.0087.0017.1207c.001.0663.0405.5509.088 1.0768l.0864.9561 1.344.3766c.7391.207 1.3871.3779 1.4399.3795.0528.0016.7078-.1675 1.4556-.3759z" id="path1655" fill="#01069b" stroke-width=".032" fill-opacity="1"/>
  </g>
</svg>
