<svg xmlns="http://www.w3.org/2000/svg" width="16" height="16"><path d="M4.53 11.519c-.79-.124-1.513-.529-1.925-1.076a3.5 3.5 0 01-.654-1.636 3.905 3.905 0 00-.064-.391c-.062-.229-.035-.643.081-1.219.133-.656.174-.792.343-1.133.175-.351.358-.6.64-.867.28-.266.44-.38.745-.532.494-.247.884-.328 1.448-.304.488.022.689.072 1.112.28.594.29 1.02.697 1.306 1.245.267.513.364.924.395 1.674l.02.504H2.433v.206c0 .836.302 1.633.804 2.121.47.458.915.645 1.596.672.534.02.916-.055 1.344-.267.509-.25.929-.736 1.086-1.253.12-.393.255-.515.52-.47l.127.021-.023.133a3.083 3.083 0 01-.26.773c-.374.748-.974 1.23-1.818 1.456-.293.079-.965.112-1.277.063zm2.912-4.055c-.009-.066-.024-.2-.034-.296a3.314 3.314 0 00-.275-.947c-.456-.967-1.347-1.475-2.389-1.36C3.46 5 2.6 5.946 2.45 7.383l-.021.2h5.028zm6.402 3.925c-.29-.07-.328-.11-1.176-1.29-1.045-1.452-1.38-1.907-1.405-1.907-.012 0-.522.684-1.135 1.52-1.046 1.426-1.125 1.525-1.276 1.6-.16.08-.47.111-.55.056-.022-.015.471-.703 1.288-1.8a92.68 92.68 0 001.322-1.799c0-.012-.555-.747-1.234-1.632L8.443 4.528l.128-.028a.799.799 0 01.565.105c.142.081.27.24 1.134 1.409.535.725.984 1.324.997 1.332.012.007.472-.587 1.022-1.322.55-.735 1.044-1.368 1.1-1.407a.786.786 0 01.259-.102c.164-.03.369-.009.374.04.004.034-.538.761-1.534 2.061-.408.534-.76 1-.779 1.037-.083.156-.033.233 1.277 1.978.707.94 1.275 1.72 1.262 1.732-.044.041-.28.056-.404.026z" fill="#01069b"/></svg>