<svg xmlns="http://www.w3.org/2000/svg" version="1.1" id="SVGRoot" viewBox="0 0 16 16">
  <g id="layer1">
    <path d="M5.6 8.144V6.752h.08c.0773 0 .08.0072.08.2128v.2128l.0913-.1248c.0502-.0686.1192-.1495.1532-.1796.1922-.1702.6153-.2067.8938-.077.7118.3314.686 1.7144-.0371 1.9906-.1043.0398-.2075.0497-.4074.0393-.3085-.0162-.5106-.1097-.6256-.2893L5.761 8.432l-.0006.552-.0005.552H5.6zm1.1745.521c.309-.1342.4634-.3972.483-.8224.0104-.2265.0002-.3076-.0583-.4628-.141-.3742-.4005-.5521-.7663-.5257-.4534.0328-.711.4441-.6644 1.0608.0289.3817.1594.6061.4235.7284.1483.0687.4488.08.5825.0218zm-4.334.1644c-.2997-.0572-.5165-.2228-.652-.498-.0672-.1366-.0765-.2-.0765-.5234 0-.3302.0086-.3864.0838-.5468.1663-.3546.4503-.5452.8122-.5452.4776 0 .8122.3381.8669.876l.022.216H1.847l.017.1863c.0384.4247.3284.7097.7221.7097.319 0 .5478-.139.6651-.4045.0555-.1254.0932-.1715.1403-.1715.0775 0 .0783.0117.014.2004-.0558.1637-.2705.3854-.4395.4538-.1426.0577-.3656.0777-.5255.0472zm.8875-1.2257c0-.2958-.256-.6547-.5172-.7252-.16-.0431-.3988-.023-.5297.0448-.2114.1093-.379.3574-.414.6126l-.0198.1441H3.328zM13.3415 8.832c-.3131-.0537-.5302-.2325-.6022-.496-.0502-.184-.0452-.214.034-.2022.0454.0067.0814.0463.1043.1146.0981.2927.4331.5099.7381.4784.1867-.0192.3828-.107.4803-.2148.046-.0508.064-.1156.064-.23 0-.229-.095-.3038-.5539-.436-.6754-.1946-.8034-.2835-.829-.5758-.0287-.33.2164-.5255.684-.5454.2265-.0097.2872-.0002.436.0679.2054.094.3133.2312.3353.4262.0141.1253.0087.1411-.0484.1411-.0491 0-.0726-.0325-.0988-.1367-.0802-.3183-.4725-.463-.8796-.3243-.1913.0652-.278.1733-.2766.3453.0018.232.0757.2832.6093.4215.474.1228.5895.1782.6936.3327.0859.1274.0974.3718.0241.5134-.1253.2424-.534.3854-.9145.3201zM9.232 8.7557c-.196-.0926-.3097-.21-.4063-.4197-.0641-.1393-.0736-.2098-.073-.544.0009-.4306.0443-.573.244-.8004.2237-.2548.6924-.3538 1.0033-.2117.2853.1303.4591.4179.513.8487l.0224.1794H8.861l.019.12c.0606.3801.2.6039.4461.7156.1756.0798.464.079.6221-.0017.1502-.0767.3045-.2483.3593-.3998.0307-.0848.0598-.1141.1133-.1141.0708 0 .0713.0025.0272.1488-.0606.2017-.1973.3616-.3992.4672-.2288.1197-.578.1247-.8169.0117zm1.1125-1.2197c-.0114-.1923-.1619-.461-.3207-.5727-.1995-.1402-.4566-.1537-.6959-.0367-.097.0475-.212.133-.2555.19-.0943.1236-.1764.3434-.1764.472v.0926l.728-.0086.728-.0086zm.9833 1.2679c-.2985-.0975-.5118-.3385-.5118-.5783 0-.1397.112-.1375.14.0027.0819.409.6062.6076 1.0583.4006.1954-.0895.2417-.1615.2417-.3764 0-.195-.0858-.2568-.5693-.4092-.5906-.1862-.6972-.2365-.7604-.3585-.0769-.1487-.0515-.4491.0469-.5538.2112-.2248.7223-.2892 1.0444-.1316.1942.095.2992.2355.3262.4363.0163.1222.0129.1293-.058.1191-.0558-.008-.081-.0377-.0964-.114-.0483-.2374-.2068-.3568-.5102-.3843-.2383-.0217-.4793.0564-.5936.1922-.0691.0821-.0813.1225-.0677.2242.0292.2173.1198.268.79.4418.1497.0387.3106.0898.3576.1134.2243.1127.3149.4666.179.6998-.1174.2017-.2992.284-.6485.294-.1584.0045-.3241-.0036-.3682-.018zm-7.698-.085c.0311-.0475.1964-.2755.3674-.5067.1709-.2311.321-.4375.3337-.4587.0139-.0232-.1173-.2226-.33-.5014-.194-.2545-.3529-.4712-.3529-.4815 0-.0347.1475-.0188.198.0214.0275.022.1746.2098.3269.4174.1522.2075.2902.369.3066.359.0164-.0102.156-.1913.31-.4026.2625-.3596.3556-.4428.458-.4087.0187.0063-.1262.2236-.3222.483-.196.2594-.3487.4897-.3394.5117.0093.0221.1832.2634.3865.5362.3045.4088.3587.4978.3082.506-.1101.018-.1738-.0465-.4973-.5037-.3188-.4505-.3194-.4511-.3743-.3788-.0303.0399-.1887.2525-.352.4725-.2476.3335-.3125.4018-.3904.4106l-.0934.0107zM7.776 7.776c0-1.0027.0013-1.024.064-1.024.0572 0 .064.0213.064.2021v.2021l.158-.1522c.2205-.2126.642-.3379.642-.1908 0 .047-.0313.0664-.136.0838-.3031.0505-.5298.2469-.6146.5324-.0369.124-.0494.3189-.0494.7684 0 .5809-.0023.6022-.064.6022-.0627 0-.064-.0213-.064-1.024z" id="path5205" fill="#01069b" stroke-width=".032" fill-opacity="1"/>
  </g>
</svg>
