<svg xmlns="http://www.w3.org/2000/svg" version="1.1" id="SVGRoot" viewBox="0 0 16 16">
  <g id="layer1">
    <path d="M5.744 13.995c-.72-.1141-1.2742-.5084-1.5675-1.115-.1627-.3365-.1858-.4688-.1685-.9674.0129-.373.0273-.4701.0941-.6326.2686-.6535.8117-1.105 1.4979-1.2453l.208-.0426L5.68 9.97c-.7842-.1359-1.4115-.6842-1.629-1.4238-.0696-.2371-.0696-.8873 0-1.1244.2044-.6951.7848-1.2312 1.5078-1.3925l.2492-.0556-.224-.0437c-.4813-.0938-1.0344-.4664-1.2947-.872-.215-.3351-.2652-.5182-.2813-1.0276-.0137-.4362-.0096-.4803.0664-.6987.247-.7105.789-1.178 1.5424-1.3306.226-.0457.5246-.0506 2.48-.0408 2.4772.0124 2.3705.0034 2.8312.2407.3025.1558.6982.5527.8364.839.3032.628.3064 1.2047.0102 1.8223-.2513.5238-.813.955-1.3906 1.0677l-.224.0437.2492.0556c.7899.1763 1.381.7753 1.5407 1.5614.062.305.0629.4648.0046.7698-.1734.906-.9207 1.5598-1.8453 1.6142-.9904.0583-1.835-.5716-2.0748-1.5472l-.0618-.2515-.0023 2.0384c-.0015 1.3298-.0144 2.0974-.037 2.208-.019.0933-.099.3036-.1776.4675-.242.5041-.6605.8608-1.205 1.0266-.2191.0668-.6293.1067-.8067.0786zm2.4534-6.8945c.2483-.5205.7148-.9034 1.281-1.0518l.2336-.0612-.872-.0017-.872-.0018.0024.904.0023.904.056-.2275c.0307-.125.1067-.3339.1687-.464z" id="path5617" fill="#01069b" stroke-width=".032" fill-opacity=".7059"/>
  </g>
</svg>
