<?xml version="1.0" encoding="UTF-8"?>
<svg xmlns="http://www.w3.org/2000/svg" xmlns:xlink="http://www.w3.org/1999/xlink" width="375pt" height="374.999991pt" viewBox="0 0 375 374.999991" version="1.2">
<g id="surface1">
<path style=" stroke:none;fill-rule:nonzero;fill:#cf8617;fill-opacity:1;" d="M 37.5 37.5 L 338.097656 37.5 L 338.097656 338.097656 L 37.5 338.097656 Z M 37.5 37.5 "/>
<path style=" stroke:none;fill-rule:nonzero;fill:rgb(100%,100%,100%);fill-opacity:1;" d="M 172.964844 187.503906 C 172.964844 189.371094 172.875 191.238281 172.691406 193.097656 C 172.507812 194.960938 172.234375 196.808594 171.871094 198.640625 C 171.503906 200.472656 171.050781 202.285156 170.507812 204.074219 C 169.964844 205.863281 169.335938 207.625 168.621094 209.351562 C 167.90625 211.078125 167.105469 212.765625 166.226562 214.414062 C 165.34375 216.066406 164.382812 217.667969 163.34375 219.222656 C 162.304688 220.777344 161.195312 222.277344 160.007812 223.722656 C 158.820312 225.167969 157.566406 226.550781 156.246094 227.871094 C 154.921875 229.195312 153.539062 230.449219 152.09375 231.636719 C 150.648438 232.820312 149.148438 233.933594 147.59375 234.972656 C 146.039062 236.011719 144.4375 236.972656 142.789062 237.851562 C 141.136719 238.734375 139.449219 239.53125 137.722656 240.25 C 135.996094 240.964844 134.238281 241.59375 132.449219 242.136719 C 130.660156 242.679688 128.847656 243.132812 127.011719 243.496094 C 125.179688 243.863281 123.332031 244.136719 121.472656 244.320312 C 119.609375 244.503906 117.746094 244.59375 115.875 244.59375 C 114.003906 244.59375 112.140625 244.503906 110.277344 244.320312 C 108.417969 244.136719 106.570312 243.863281 104.738281 243.496094 C 102.902344 243.132812 101.089844 242.679688 99.300781 242.136719 C 97.511719 241.59375 95.753906 240.964844 94.027344 240.25 C 92.300781 239.53125 90.609375 238.734375 88.960938 237.851562 C 87.3125 236.972656 85.710938 236.011719 84.15625 234.972656 C 82.601562 233.933594 81.101562 232.820312 79.65625 231.636719 C 78.210938 230.449219 76.828125 229.195312 75.503906 227.871094 C 74.183594 226.550781 72.929688 225.167969 71.742188 223.722656 C 70.554688 222.277344 69.445312 220.777344 68.40625 219.222656 C 67.367188 217.667969 66.40625 216.066406 65.523438 214.414062 C 64.644531 212.765625 63.84375 211.078125 63.128906 209.351562 C 62.414062 207.625 61.785156 205.863281 61.242188 204.074219 C 60.699219 202.285156 60.246094 200.472656 59.878906 198.640625 C 59.515625 196.808594 59.242188 194.960938 59.058594 193.097656 C 58.875 191.238281 58.78125 189.371094 58.78125 187.503906 C 58.78125 185.632812 58.875 183.765625 59.058594 181.90625 C 59.242188 180.046875 59.515625 178.199219 59.878906 176.363281 C 60.246094 174.53125 60.699219 172.71875 61.242188 170.929688 C 61.785156 169.140625 62.414062 167.382812 63.128906 165.65625 C 63.84375 163.925781 64.644531 162.238281 65.523438 160.589844 C 66.40625 158.941406 67.367188 157.339844 68.40625 155.785156 C 69.445312 154.230469 70.554688 152.730469 71.742188 151.285156 C 72.929688 149.839844 74.183594 148.453125 75.503906 147.132812 C 76.828125 145.808594 78.210938 144.554688 79.65625 143.371094 C 81.101562 142.183594 82.601562 141.070312 84.15625 140.03125 C 85.710938 138.992188 87.3125 138.035156 88.960938 137.152344 C 90.609375 136.269531 92.300781 135.472656 94.027344 134.757812 C 95.753906 134.042969 97.511719 133.410156 99.300781 132.871094 C 101.089844 132.328125 102.902344 131.871094 104.738281 131.507812 C 106.570312 131.144531 108.417969 130.867188 110.277344 130.6875 C 112.140625 130.503906 114.003906 130.410156 115.875 130.410156 C 117.746094 130.410156 119.609375 130.503906 121.472656 130.6875 C 123.332031 130.867188 125.179688 131.144531 127.011719 131.507812 C 128.847656 131.871094 130.660156 132.328125 132.449219 132.871094 C 134.238281 133.410156 135.996094 134.042969 137.722656 134.757812 C 139.449219 135.472656 141.136719 136.269531 142.789062 137.152344 C 144.4375 138.035156 146.039062 138.992188 147.59375 140.03125 C 149.148438 141.070312 150.648438 142.183594 152.09375 143.371094 C 153.539062 144.554688 154.921875 145.808594 156.246094 147.132812 C 157.566406 148.453125 158.820312 149.839844 160.007812 151.285156 C 161.195312 152.730469 162.304688 154.230469 163.34375 155.785156 C 164.382812 157.339844 165.34375 158.941406 166.226562 160.589844 C 167.105469 162.238281 167.90625 163.925781 168.621094 165.65625 C 169.335938 167.382812 169.964844 169.140625 170.507812 170.929688 C 171.050781 172.71875 171.503906 174.53125 171.871094 176.363281 C 172.234375 178.199219 172.507812 180.046875 172.691406 181.90625 C 172.875 183.765625 172.964844 185.632812 172.964844 187.503906 Z M 172.964844 187.503906 "/>
<path style=" stroke:none;fill-rule:nonzero;fill:rgb(100%,100%,100%);fill-opacity:1;" d="M 316.21875 187.503906 C 316.21875 189.371094 316.125 191.238281 315.941406 193.097656 C 315.757812 194.960938 315.484375 196.808594 315.121094 198.640625 C 314.753906 200.472656 314.300781 202.285156 313.757812 204.074219 C 313.214844 205.863281 312.585938 207.625 311.871094 209.351562 C 311.15625 211.078125 310.355469 212.765625 309.476562 214.414062 C 308.59375 216.066406 307.632812 217.667969 306.59375 219.222656 C 305.554688 220.777344 304.445312 222.277344 303.257812 223.722656 C 302.070312 225.167969 300.816406 226.550781 299.496094 227.871094 C 298.171875 229.195312 296.789062 230.449219 295.34375 231.636719 C 293.898438 232.820312 292.398438 233.933594 290.84375 234.972656 C 289.289062 236.011719 287.6875 236.972656 286.039062 237.851562 C 284.390625 238.734375 282.699219 239.53125 280.972656 240.25 C 279.246094 240.964844 277.488281 241.59375 275.699219 242.136719 C 273.910156 242.679688 272.097656 243.132812 270.261719 243.496094 C 268.429688 243.863281 266.582031 244.136719 264.722656 244.320312 C 262.859375 244.503906 260.996094 244.59375 259.125 244.59375 C 257.253906 244.59375 255.390625 244.503906 253.527344 244.320312 C 251.667969 244.136719 249.820312 243.863281 247.988281 243.496094 C 246.152344 243.132812 244.339844 242.679688 242.550781 242.136719 C 240.761719 241.59375 239.003906 240.964844 237.277344 240.25 C 235.550781 239.53125 233.863281 238.734375 232.210938 237.851562 C 230.5625 236.972656 228.960938 236.011719 227.40625 234.972656 C 225.851562 233.933594 224.351562 232.820312 222.90625 231.636719 C 221.460938 230.449219 220.078125 229.195312 218.753906 227.871094 C 217.433594 226.550781 216.179688 225.167969 214.992188 223.722656 C 213.804688 222.277344 212.695312 220.777344 211.65625 219.222656 C 210.617188 217.667969 209.65625 216.066406 208.773438 214.414062 C 207.894531 212.765625 207.09375 211.078125 206.378906 209.351562 C 205.664062 207.625 205.035156 205.863281 204.492188 204.074219 C 203.949219 202.285156 203.496094 200.472656 203.128906 198.640625 C 202.765625 196.808594 202.492188 194.960938 202.308594 193.097656 C 202.125 191.238281 202.035156 189.371094 202.035156 187.503906 C 202.035156 185.632812 202.125 183.765625 202.308594 181.90625 C 202.492188 180.046875 202.765625 178.199219 203.128906 176.363281 C 203.496094 174.53125 203.949219 172.71875 204.492188 170.929688 C 205.035156 169.140625 205.664062 167.382812 206.378906 165.65625 C 207.09375 163.925781 207.894531 162.238281 208.773438 160.589844 C 209.65625 158.941406 210.617188 157.339844 211.65625 155.785156 C 212.695312 154.230469 213.804688 152.730469 214.992188 151.285156 C 216.179688 149.839844 217.433594 148.453125 218.753906 147.132812 C 220.078125 145.808594 221.460938 144.554688 222.90625 143.371094 C 224.351562 142.183594 225.851562 141.070312 227.40625 140.03125 C 228.960938 138.992188 230.5625 138.035156 232.210938 137.152344 C 233.863281 136.269531 235.550781 135.472656 237.277344 134.757812 C 239.003906 134.042969 240.761719 133.410156 242.550781 132.871094 C 244.339844 132.328125 246.152344 131.871094 247.988281 131.507812 C 249.820312 131.144531 251.667969 130.867188 253.527344 130.6875 C 255.390625 130.503906 257.253906 130.410156 259.125 130.410156 C 260.996094 130.410156 262.859375 130.503906 264.722656 130.6875 C 266.582031 130.867188 268.429688 131.144531 270.261719 131.507812 C 272.097656 131.871094 273.910156 132.328125 275.699219 132.871094 C 277.488281 133.410156 279.246094 134.042969 280.972656 134.757812 C 282.699219 135.472656 284.390625 136.269531 286.039062 137.152344 C 287.6875 138.035156 289.289062 138.992188 290.84375 140.03125 C 292.398438 141.070312 293.898438 142.183594 295.34375 143.371094 C 296.789062 144.554688 298.171875 145.808594 299.496094 147.132812 C 300.816406 148.453125 302.070312 149.839844 303.257812 151.285156 C 304.445312 152.730469 305.554688 154.230469 306.59375 155.785156 C 307.632812 157.339844 308.59375 158.941406 309.476562 160.589844 C 310.355469 162.238281 311.15625 163.925781 311.871094 165.65625 C 312.585938 167.382812 313.214844 169.140625 313.757812 170.929688 C 314.300781 172.71875 314.753906 174.53125 315.121094 176.363281 C 315.484375 178.199219 315.757812 180.046875 315.941406 181.90625 C 316.125 183.765625 316.21875 185.632812 316.21875 187.503906 Z M 316.21875 187.503906 "/>
</g>
</svg>
