<svg xmlns="http://www.w3.org/2000/svg" version="1.1" id="SVGRoot" viewBox="0 0 16 16">
  <g id="layer1">
    <path d="M13.9593 13.1356c-.4198-.1396-.8601-.367-1.062-.5485-.2005-.1803-.3165-.4142-.3423-.69l-.0197-.2117-.2917-.07c-.3592-.0864-.9728-.3058-1.4534-.52l-.3619-.1611-.1181.0656-.234.13c-.403.2237-1.1144.4054-1.7242.4403-1.379.079-3.2822-.5348-4.5062-1.4531-.127-.0953-.2121-.133-.336-.1486-.5026-.0633-1.0047-.354-1.3485-.7808C1.3771 8.2141 1.451 7 2.3185 6.6043c.3581-.1634.917-.1005 1.3074.147l.1469.0932.0219-.0702c.012-.0387.0595-.1423.1056-.2303l.0837-.16L4 5.0767l.016-1.3073.2825.4198c.5647.8391 1.2165 1.3895 1.8753 1.5836.2495.0735.3011.066.5397-.0779.2776-.1674.472-.2267.8077-.2462.2943-.0171.55.0306.818.1528.166.0755.1944.0724.6528-.0728 1.1699-.3705 2.064-1.1214 2.449-2.0567.2243-.5453.343-.688.5722-.688.1507 0 .255.0608.3194.186.1503.2924.2407 1.6623.184 2.7892-.0975 1.9422-.4071 3.1924-1.0208 4.1221-.0615.0932-.1064.1732-.0998.178.0066.0047.2064.114.444.2428.2376.1288.5682.327.7347.4404l.3027.2062.159-.0744c.3346-.1565.7205-.0793 1.0035.201.2254.2231.3167.6376.3498 1.5887.0239.685.0676.6372-.4304.4716zm-.1173-.8876c-.0289-.3434-.0997-.6854-.1615-.7797-.0651-.0994-.2299-.1819-.3187-.1596-.2235.0561-.3418.312-.2742.5936.0451.188.197.3415.5023.507.276.1498.2782.1484.2521-.1613zm-5.0447-1.2571c.3326-.054.688-.164.936-.2896l.1617-.082-.2942-.1902-.2942-.1902-.4533-.0123c-.2493-.0067-.5829-.0357-.7413-.0643-.3526-.0637-1.0677-.244-1.392-.351l-.24-.0793.768-.0023c1.1615-.0034 1.8029-.077 2.1336-.2445.106-.0537.1598-.1034.1742-.1609.0272-.1083-.0356-.3847-.1182-.5205-.0358-.0589-.0579-.1142-.049-.123.0305-.0306.4649.2828.5623.4058.1065.1345.1931.3177.1931.4087 0 .0438.0857.0898.36.1933l.36.136.1044-.1203c.1303-.15.4583-.8077.564-1.1306.225-.6875.3645-1.473.4388-2.4704.0385-.5173.023-2.1756-.0219-2.3237-.0207-.0687-.0317-.0574-.1093.1137-.2377.5235-.7954 1.1505-1.3425 1.5094-.3647.2393-.8483.4771-1.2175.5988-.1496.0493-.2765.0929-.2821.0968-.0055.004.0339.0852.0876.1804.1828.3238.2348.52.2358.8893.0012.4043-.0684.6393-.2861.9671-.3237.4873-.834.7609-1.4192.7609-.4598 0-.8493-.1543-1.1836-.4687l-.2091-.1966-.0957.0784c-.264.2168-.679.349-1.0076.3212-.1144-.0097-.2332-.0275-.264-.0394-.0496-.0193-.056.0007-.056.1747 0 .3339-.1291.6417-.3808.9077-.0958.1013-.1069.1265-.067.1528.8879.5847 2.0071 1.0174 3.0078 1.1628.4161.0605 1.071.0614 1.4373.002zm-4.805-1.654c.3845-.2545.3714-.9472-.0293-1.5462-.2683-.4012-.6813-.6944-1.039-.7377l-.156-.0189.1112.059c.0611.0324.1532.1192.2047.193.077.1104.096.175.1078.368.013.211.0054.251-.0776.4085-.1166.2214-.3141.3388-.51.3034-.1512-.0274-.379-.2472-.412-.3976-.0122-.0555-.0283-.0948-.0358-.0874-.0327.0327.0669.3782.17.59.1972.4053.5944.774.983.9123.2338.0833.516.064.683-.0465zm3.7656-.9815c.0097-.0157-.0195-.038-.065-.0493-.0454-.0114-.1525-.0906-.2379-.176-.204-.204-.2795-.4363-.2269-.6982.0373-.1853.1177-.3402.2293-.4411.0674-.061.0674-.061.0421.034-.061.2297.015.4027.2224.5058.398.1978.7457-.376.4027-.6645l-.0975-.0821.0904.0007c.2133.0017.4734.1973.6161.4633l.0687.128-.0116-.256c-.0159-.3522-.1282-.5986-.3784-.8303-.2606-.2413-.4663-.3144-.8451-.3004-.249.0092-.318.025-.5006.115-.2545.1254-.4154.295-.5498.5798-.0885.1873-.0999.2434-.0981.4839.0027.3727.091.5953.3305.833.186.1848.3346.2718.5788.339.1712.0472.405.0555.4299.0154zm-2.577-.3231c-.2899-.1532-.4264-.4675-.3368-.7755.0296-.102.0883-.2077.146-.2629l.0963-.0923-.0361.0955c-.1137.3012.2706.5642.5282.3615.1537-.1209.1415-.4133-.022-.5279-.0662-.0463-.066-.0467.0129-.0467.0437 0 .1327.0285.1976.0633.1324.071.1374.0676.1664-.1113.0176-.109.0087-.1409-.0604-.2147-.3459-.3696-.95-.3744-1.3154-.0105-.1854.1847-.2696.3853-.2696.6422 0 .1426.02.196.1452.3863.0799.1214.1533.2523.163.291.0329.1294.311.2606.5558.262l.144.0009-.1152-.061zm-.3834-2.2646l.1415-.0495-.1095-.0954a2.567 2.567 0 01-.1974-.1951l-.088-.0997v.2674c0 .242.0052.2653.056.2446a5.9973 5.9973 0 01.1974-.0723z" id="path5451" fill="#01069b" stroke-width=".032" fill-opacity="1"/>
  </g>
</svg>
