<svg xmlns="http://www.w3.org/2000/svg" version="1.1" id="SVGRoot" viewBox="0 0 16 16">
  <g id="layer1">
    <path d="M7.648 14.2248c-.0983-.052-1.0548-.9893-3.0109-2.9505-3.1368-3.1449-2.9411-2.924-2.9411-3.319 0-.1294.0223-.2247.0778-.3324.0557-.108.623-.6955 2-2.0707l1.922-1.9198.7167.716c.7049.7045.7161.7178.688.8157-.0443.1545-.0337.4413.0224.606.0596.1749.2895.444.4283.5016l.0968.04v3.5045l-.0968.0401c-.1388.0575-.3687.3267-.4283.5016-.196.5752.1439 1.179.7251 1.2885a.958.958 0 001.1384-.8835c.0221-.3436-.1436-.6905-.4102-.8588l-.1282-.0809V6.3846l.6563.6557c.452.4515.6503.6706.6368.7037-.0108.0264-.0272.1364-.0365.2444-.0235.275.0567.5145.2409.7194.2005.223.3495.2921.6672.3096.2283.0125.282.0044.432-.0652.355-.1647.5704-.4885.571-.8585.0004-.3087-.0743-.493-.2856-.7046-.234-.2342-.4227-.3016-.7692-.275l-.2444.019-.6774-.6786-.6773-.6785.0192-.2257c.0293-.3435-.0416-.5483-.2708-.7825-.1579-.1615-.2134-.1957-.4164-.2568-.201-.0606-.2579-.0658-.4-.0369l-.1658.0337L7 3.7822l-.728-.7256.6-.6011c.6808-.682.7944-.7595 1.1144-.7595.1088 0 .2535.0227.3217.0505.0908.037.8884.8135 2.9832 2.904 3.1224 3.116 3.012 2.9928 3.012 3.3655 0 .3725.1074.2523-2.98 3.3346-2.1885 2.1848-2.8598 2.8372-2.9713 2.8873-.207.093-.5143.0873-.704-.0131z" id="path120" fill="#01069b" stroke-width=".032" fill-opacity="1"/>
  </g>
</svg>
