<svg xmlns="http://www.w3.org/2000/svg" version="1.1" id="SVGRoot" viewBox="0 0 16 16">
  <g id="layer1">
    <path d="M5.7153 13.7628c-1.1774-.3306-2.1581-.614-2.1795-.63-.0266-.0197-.1918-1.7601-.5251-5.5328-.2675-3.0272-.4939-5.5436-.503-5.592l-.0168-.088H13.5096l-.018.12c-.01.066-.2364 2.5824-.5033 5.592-.2668 3.0096-.4952 5.4833-.5074 5.497-.0423.0478-4.2739 1.2109-4.4489 1.2229-.1517.0103-.4713-.071-2.3167-.589zm3.7645-2.1553c.717-.2004 1.3126-.3732 1.3234-.384.0108-.0108.1041-.9601.2074-2.1096.1033-1.1494.1881-2.0935.1886-2.0979.0004-.0044-1.1296-.008-2.5112-.008-1.8346 0-2.512-.0097-2.512-.0359 0-.0675-.0952-1.1319-.112-1.2521l-.0168-.12h2.6404c1.6496 0 2.6404-.0114 2.6404-.0305 0-.0568.0955-1.137.1098-1.2415l.0142-.104H4.5384l.018.12c.01.066.0913.9696.1808 2.008.0894 1.0384.1692 1.9204.1773 1.96l.0147.072H9.7l-.018.136c-.01.0748-.0484.4744-.0853.888-.0368.4136-.0692.7539-.0718.7562-.0026.0023-.3492.0974-.7701.2113l-.7653.2071-.7547-.2064c-.4151-.1135-.7578-.2093-.7616-.2129-.0038-.0035-.0294-.2418-.057-.5294-.0274-.2877-.0576-.5353-.067-.5504-.0092-.0151-.3184-.0275-.687-.0275H4.992l-.0001.072c-.0003.1644.1631 1.966.1847 2.036.0214.0696.1358.1077 1.3674.455 1.0553.2975 1.375.3761 1.488.3659.0792-.0072.7307-.177 1.4478-.3774z" id="path1029" fill="#01069b" stroke-width=".032" fill-opacity="1"/>
  </g>
</svg>
