<svg xmlns="http://www.w3.org/2000/svg" version="1.1" id="SVGRoot" viewBox="0 0 16 16">
  <g id="layer1">
    <path d="M7.76 13.8203c-.1056-.0153-.228-.0545-.272-.0871-.0955-.0707-.1557-.2274-.1582-.4117-.0039-.2898-.0834-.3448-.6638-.46-.4306-.0855-.5638-.1379-.6693-.2633-.0661-.0786-.0794-.121-.0652-.2084.0248-.153.098-.2235.3565-.344.3101-.1446.432-.2871.432-.5052 0-.2934-.4809-.525-1.936-.9325-.3344-.0936-.7072-.2065-.8285-.2508-.4711-.1722-.4367-.2376.3725-.7065.1715-.0995.3623-.2313.424-.2929.2918-.2919.06-.4329-1.2598-.7664-.6142-.1552-.8615-.2418-1.039-.364-.2148-.1477-.2311-.1942-.1348-.3843.2213-.4367 2.2362-2.743 3.3168-3.7965.3256-.3174.6673-.6042 1.1648-.9773.7676-.5758.9541-.694 1.255-.7947.2393-.0802.3933-.0844.5306-.0146.3954.201 1.6244 1.4667 2.8081 2.8919 1.4065 1.6933 2.2992 2.989 2.3571 3.421.0583.4342-.6158.7623-2.4068 1.1715-.6256.143-1.0544.2608-1.174.3226-.1967.1017-.0579.2906.4481.6098.5439.343.7389.5098.7409.6333.0028.172-.5725.5685-1.567 1.0798-.5714.2938-.608.3168-.608.3806 0 .029.0726.09.168.1408.522.2785.557.4403.1381.6393-.2747.1305-.667.23-1.0741.2725-.3449.036-.39.0358-.656-.003zm.375-3.6683c.0802-.092.122-.1922.102-.2445-.0221-.0574-.2202-.1354-.6956-.274-.7668-.2233-1.3508-.3169-1.4375-.2302-.1262.1262.6834.5129 1.5484.7394.298.0781.4206.0805.4826.0093zm.0206-4.16c.0476-.0484.143-.2176.2119-.376.148-.3403.2266-.464.295-.464.0274 0 .2366.0936.4647.208.228.1144.4422.208.4758.208.0907 0 .0895-.1077-.0054-.4853-.1415-.5636-.055-.599.4616-.1884.4105.3262.5787.3855.7293.2574l.0755-.0642-.6932-.683c-1.0585-1.0431-1.7906-1.6549-2.04-1.7048-.1199-.024-.3297.0888-.7968.4278-.6852.4974-1.3941 1.1537-1.5645 1.4485-.0458.0792-.1944.3168-.3302.528-.3115.4845-.3896.639-.3772.7464l.0099.0856h.848c.9086 0 1.0382-.0128 1.1464-.1136.0654-.061.0696-.0935.0696-.5359 0-.259.014-.52.0312-.5798.0763-.2659.3282-.3525.4495-.1547.0923.1503.122.2727.193.792.0698.5116.0803.5592.1464.664.059.0936.0943.0908.1995-.016zm3.339 6.7259c-.1104-.0774-.2097-.2981-.2078-.4619.0016-.1324.1095-.3845.1644-.3837.0562.0008.4604.3376.5022.4184.0415.0803.0419.1066.0027.2003-.0981.2349-.3049.3366-.4614.2269zm-6.72-.0321c-.095-.0665-.2306-.3384-.2306-.4623 0-.279.3474-.543.716-.5438.1516-.0004.788.1286.788.1597 0 .049-.3897.4767-.5544.6086-.3447.2759-.562.3478-.719.2378zm7.4974-1.0332c-.2491-.0745-.5164-.192-.562-.2471-.0284-.0342.0005-.0801.135-.2144.302-.3017.7207-.4453 1.083-.3714.4982.1015.722.3691.5477.6549-.101.1656-.2584.22-.6597.2283-.2629.0054-.4006-.0073-.544-.0503z" id="path5534" fill="#01069b" stroke-width=".032" fill-opacity="1"/>
  </g>
</svg>
