<svg xmlns="http://www.w3.org/2000/svg" version="1.1" id="SVGRoot" viewBox="0 0 16 16">
  <g id="layer1">
    <path d="M1.6 8V1.6h12.8v12.8H1.6zm5.6541 5.3465c.6585-.136 1.0574-.51 1.248-1.1705.0496-.1721.0564-.4244.0662-2.44l.0109-2.248H7.36v2.1382c0 2.3412-.002 2.3677-.1857 2.5437-.158.1514-.473.1965-.7033.1005-.1475-.0614-.3363-.2423-.443-.4243-.0445-.0758-.0915-.1334-.1046-.128-.013.0054-.2351.138-.4935.2946l-.4697.2848.0908.1572c.4321.7485 1.2646 1.0855 2.2031.8918zm4.788-.0174c.5271-.1127 1.0163-.4738 1.2047-.8893.301-.664.1564-1.4834-.3441-1.95-.2814-.2623-.4684-.3673-1.4947-.8395-.4848-.223-.6267-.3703-.6289-.6527-.0035-.4515.4298-.6669.9169-.4558.1217.0528.2605.1849.3699.3519l.0498.0761.4678-.3.4677-.3-.0536-.0943c-.0869-.1528-.4122-.4868-.5776-.5929-.5653-.3628-1.5657-.3594-2.136.0072-.21.135-.4507.4093-.5532.6302-.2518.5428-.1826 1.2413.1706 1.721.2438.3312.5327.5098 1.5706.9711.552.2454.72.4186.72.7421 0 .2394-.201.4586-.4928.5373-.2191.0592-.6466.0222-.8559-.074-.179-.0822-.4187-.292-.5747-.503l-.0809-.1094-.4852.2802-.4853.2803.0447.0864c.1701.3289.5173.6597.902.8596.5339.2772 1.2244.3572 1.8782.2175z" id="path2448" fill="#01069b" stroke-width=".032" fill-opacity="1"/>
  </g>
</svg>
