<?xml version="1.0" encoding="UTF-8"?>
<svg xmlns="http://www.w3.org/2000/svg" xmlns:xlink="http://www.w3.org/1999/xlink" width="375pt" height="374.999991pt" viewBox="0 0 375 374.999991" version="1.2">
<defs>
<clipPath id="clip1">
  <path d="M 37.5 37.5 L 337.5 37.5 L 337.5 337.5 L 37.5 337.5 Z M 37.5 37.5 "/>
</clipPath>
</defs>
<g id="surface1">
<g clip-path="url(#clip1)" clip-rule="nonzero">
<path style=" stroke:none;fill-rule:nonzero;fill:rgb(81.17981%,52.549744%,9.01947%);fill-opacity:1;" d="M 82.5 37.5 L 292.5 37.5 C 293.972656 37.5 295.445312 37.570312 296.910156 37.714844 C 298.378906 37.859375 299.832031 38.078125 301.277344 38.363281 C 302.722656 38.652344 304.152344 39.011719 305.5625 39.4375 C 306.972656 39.867188 308.359375 40.363281 309.722656 40.925781 C 311.082031 41.488281 312.414062 42.117188 313.710938 42.8125 C 315.011719 43.507812 316.273438 44.265625 317.5 45.082031 C 318.726562 45.902344 319.910156 46.78125 321.046875 47.714844 C 322.1875 48.648438 323.277344 49.636719 324.320312 50.679688 C 325.363281 51.722656 326.351562 52.8125 327.285156 53.953125 C 328.21875 55.089844 329.097656 56.273438 329.917969 57.5 C 330.734375 58.726562 331.492188 59.988281 332.1875 61.289062 C 332.882812 62.585938 333.511719 63.917969 334.074219 65.277344 C 334.636719 66.640625 335.132812 68.027344 335.5625 69.4375 C 335.988281 70.847656 336.347656 72.277344 336.636719 73.722656 C 336.921875 75.167969 337.140625 76.621094 337.285156 78.089844 C 337.429688 79.554688 337.5 81.027344 337.5 82.5 L 337.5 292.5 C 337.5 293.972656 337.429688 295.445312 337.285156 296.910156 C 337.140625 298.378906 336.921875 299.832031 336.636719 301.277344 C 336.347656 302.722656 335.988281 304.152344 335.5625 305.5625 C 335.132812 306.972656 334.636719 308.359375 334.074219 309.722656 C 333.511719 311.082031 332.882812 312.414062 332.1875 313.710938 C 331.492188 315.011719 330.734375 316.273438 329.917969 317.5 C 329.097656 318.726562 328.21875 319.910156 327.285156 321.046875 C 326.351562 322.1875 325.363281 323.277344 324.320312 324.320312 C 323.277344 325.363281 322.1875 326.351562 321.046875 327.285156 C 319.910156 328.21875 318.726562 329.097656 317.5 329.917969 C 316.273438 330.734375 315.011719 331.492188 313.710938 332.1875 C 312.414062 332.882812 311.082031 333.511719 309.722656 334.074219 C 308.359375 334.636719 306.972656 335.132812 305.5625 335.5625 C 304.152344 335.988281 302.722656 336.347656 301.277344 336.636719 C 299.832031 336.921875 298.378906 337.140625 296.910156 337.285156 C 295.445312 337.429688 293.972656 337.5 292.5 337.5 L 82.5 337.5 C 81.027344 337.5 79.554688 337.429688 78.089844 337.285156 C 76.621094 337.140625 75.167969 336.921875 73.722656 336.636719 C 72.277344 336.347656 70.847656 335.988281 69.4375 335.5625 C 68.027344 335.132812 66.640625 334.636719 65.277344 334.074219 C 63.917969 333.511719 62.585938 332.882812 61.289062 332.1875 C 59.988281 331.492188 58.726562 330.734375 57.5 329.917969 C 56.273438 329.097656 55.089844 328.21875 53.953125 327.285156 C 52.8125 326.351562 51.722656 325.363281 50.679688 324.320312 C 49.636719 323.277344 48.648438 322.1875 47.714844 321.046875 C 46.78125 319.910156 45.902344 318.726562 45.082031 317.5 C 44.265625 316.273438 43.507812 315.011719 42.8125 313.710938 C 42.117188 312.414062 41.488281 311.082031 40.925781 309.722656 C 40.363281 308.359375 39.867188 306.972656 39.4375 305.5625 C 39.011719 304.152344 38.652344 302.722656 38.363281 301.277344 C 38.078125 299.832031 37.859375 298.378906 37.714844 296.910156 C 37.570312 295.445312 37.5 293.972656 37.5 292.5 L 37.5 82.5 C 37.5 81.027344 37.570312 79.554688 37.714844 78.089844 C 37.859375 76.621094 38.078125 75.167969 38.363281 73.722656 C 38.652344 72.277344 39.011719 70.847656 39.4375 69.4375 C 39.867188 68.027344 40.363281 66.640625 40.925781 65.277344 C 41.488281 63.917969 42.117188 62.585938 42.8125 61.289062 C 43.507812 59.988281 44.265625 58.726562 45.082031 57.5 C 45.902344 56.273438 46.78125 55.089844 47.714844 53.953125 C 48.648438 52.8125 49.636719 51.722656 50.679688 50.679688 C 51.722656 49.636719 52.8125 48.648438 53.953125 47.714844 C 55.089844 46.78125 56.273438 45.902344 57.5 45.082031 C 58.726562 44.265625 59.988281 43.507812 61.289062 42.8125 C 62.585938 42.117188 63.917969 41.488281 65.277344 40.925781 C 66.640625 40.363281 68.027344 39.867188 69.4375 39.4375 C 70.847656 39.011719 72.277344 38.652344 73.722656 38.363281 C 75.167969 38.078125 76.621094 37.859375 78.089844 37.714844 C 79.554688 37.570312 81.027344 37.5 82.5 37.5 Z M 82.5 37.5 "/>
</g>
<path style=" stroke:none;fill-rule:nonzero;fill:rgb(100%,100%,100%);fill-opacity:1;" d="M 142.382812 118.359375 C 142.382812 119.070312 142.347656 119.777344 142.277344 120.484375 C 142.207031 121.191406 142.105469 121.890625 141.964844 122.589844 C 141.828125 123.285156 141.65625 123.972656 141.449219 124.652344 C 141.242188 125.332031 141.003906 126 140.734375 126.65625 C 140.460938 127.3125 140.15625 127.953125 139.824219 128.578125 C 139.488281 129.207031 139.125 129.8125 138.730469 130.402344 C 138.335938 130.996094 137.914062 131.5625 137.460938 132.113281 C 137.011719 132.660156 136.535156 133.1875 136.03125 133.6875 C 135.53125 134.191406 135.003906 134.667969 134.457031 135.117188 C 133.90625 135.570312 133.339844 135.992188 132.746094 136.386719 C 132.15625 136.78125 131.550781 137.144531 130.921875 137.480469 C 130.296875 137.8125 129.65625 138.117188 129 138.390625 C 128.34375 138.660156 127.675781 138.898438 126.996094 139.105469 C 126.316406 139.3125 125.628906 139.484375 124.933594 139.621094 C 124.234375 139.761719 123.535156 139.863281 122.828125 139.933594 C 122.121094 140.003906 121.414062 140.039062 120.703125 140.039062 C 119.992188 140.039062 119.285156 140.003906 118.578125 139.933594 C 117.871094 139.863281 117.171875 139.761719 116.472656 139.621094 C 115.777344 139.484375 115.089844 139.3125 114.410156 139.105469 C 113.730469 138.898438 113.0625 138.660156 112.40625 138.390625 C 111.75 138.117188 111.109375 137.8125 110.484375 137.480469 C 109.855469 137.144531 109.25 136.78125 108.660156 136.386719 C 108.066406 135.992188 107.5 135.570312 106.949219 135.117188 C 106.402344 134.667969 105.875 134.191406 105.375 133.6875 C 104.871094 133.1875 104.394531 132.660156 103.945312 132.113281 C 103.492188 131.5625 103.070312 130.996094 102.675781 130.402344 C 102.28125 129.8125 101.917969 129.207031 101.582031 128.578125 C 101.25 127.953125 100.945312 127.3125 100.671875 126.65625 C 100.402344 126 100.164062 125.332031 99.957031 124.652344 C 99.75 123.972656 99.578125 123.285156 99.441406 122.589844 C 99.300781 121.890625 99.199219 121.191406 99.128906 120.484375 C 99.058594 119.777344 99.023438 119.070312 99.023438 118.359375 C 99.023438 117.648438 99.058594 116.941406 99.128906 116.234375 C 99.199219 115.527344 99.300781 114.828125 99.441406 114.128906 C 99.578125 113.433594 99.75 112.746094 99.957031 112.066406 C 100.164062 111.386719 100.402344 110.71875 100.671875 110.0625 C 100.945312 109.40625 101.25 108.765625 101.582031 108.140625 C 101.917969 107.511719 102.28125 106.90625 102.675781 106.316406 C 103.070312 105.722656 103.492188 105.15625 103.945312 104.605469 C 104.394531 104.058594 104.871094 103.53125 105.375 103.03125 C 105.875 102.527344 106.402344 102.050781 106.949219 101.601562 C 107.5 101.148438 108.066406 100.726562 108.660156 100.332031 C 109.25 99.9375 109.855469 99.574219 110.484375 99.238281 C 111.109375 98.90625 111.75 98.601562 112.40625 98.328125 C 113.0625 98.058594 113.730469 97.820312 114.410156 97.613281 C 115.089844 97.40625 115.777344 97.234375 116.472656 97.097656 C 117.171875 96.957031 117.871094 96.855469 118.578125 96.785156 C 119.285156 96.714844 119.992188 96.679688 120.703125 96.679688 C 121.414062 96.679688 122.121094 96.714844 122.828125 96.785156 C 123.535156 96.855469 124.234375 96.957031 124.933594 97.097656 C 125.628906 97.234375 126.316406 97.40625 126.996094 97.613281 C 127.675781 97.820312 128.34375 98.058594 129 98.328125 C 129.65625 98.601562 130.296875 98.90625 130.921875 99.238281 C 131.550781 99.574219 132.15625 99.9375 132.746094 100.332031 C 133.339844 100.726562 133.90625 101.148438 134.457031 101.601562 C 135.003906 102.050781 135.53125 102.527344 136.03125 103.03125 C 136.535156 103.53125 137.011719 104.058594 137.460938 104.605469 C 137.914062 105.15625 138.335938 105.722656 138.730469 106.316406 C 139.125 106.90625 139.488281 107.511719 139.824219 108.140625 C 140.15625 108.765625 140.460938 109.40625 140.734375 110.0625 C 141.003906 110.71875 141.242188 111.386719 141.449219 112.066406 C 141.65625 112.746094 141.828125 113.433594 141.964844 114.128906 C 142.105469 114.828125 142.207031 115.527344 142.277344 116.234375 C 142.347656 116.941406 142.382812 117.648438 142.382812 118.359375 Z M 142.382812 118.359375 "/>
<path style="fill-rule:nonzero;fill:rgb(100%,100%,100%);fill-opacity:1;stroke-width:66;stroke-linecap:butt;stroke-linejoin:miter;stroke:rgb(100%,100%,100%);stroke-opacity:1;stroke-miterlimit:4;" d="M 244.000008 194.000013 L 244.000008 392.000022 M 142.000003 194.000013 L 142.000003 392.000022 " transform="matrix(0.585937,0,0,0.585937,37.500002,37.499998)"/>
<path style=" stroke:none;fill-rule:nonzero;fill:rgb(100%,100%,100%);fill-opacity:1;" d="M 199.21875 202.734375 C 199.21875 191.015625 206.835938 179.296875 220.3125 179.296875 C 234.375 179.296875 239.648438 189.84375 239.648438 205.664062 L 239.648438 267.1875 L 278.320312 267.1875 L 278.320312 200.976562 C 278.320312 165.234375 259.570312 148.828125 233.789062 148.828125 C 213.867188 148.828125 203.90625 159.960938 199.21875 167.578125 "/>
</g>
</svg>
