<svg xmlns="http://www.w3.org/2000/svg" width="16" height="16"><path d="M6.575 10.52a7.48 7.48 0 01-.008-.665l.009-.623.22.344c.12.19.232.344.249.344.016 0 .13-.155.252-.344l.223-.344-.008.656-.008.656-.457.009c-.353.007-.46 0-.472-.033zm1.994-1.567l-.009-.841H7.505l-.218.4c-.12.22-.23.411-.243.425-.014.014-.13-.17-.258-.408l-.232-.433H5.536v.864l-.264-.264c-.284-.284-.617-.493-.925-.581a4.834 4.834 0 00-.978-.147c-.269 0-.841.082-1.114.16-.401.115-.387.093.259-.398.995-.758 2.118-1.3 3.102-1.495.176-.035.516-.072.756-.082l.436-.018.037.215c.074.424.242.75.55 1.064.294.302.7.54 1.021.6.083.015.05-.01-.123-.092-.613-.294-1.035-.744-1.238-1.319-.08-.228-.103-.515-.047-.619.117-.219.813-.13 1.648.21.056.023.059.02.023-.025a1.202 1.202 0 00-.28-.156c-.148-.065-.228-.116-.21-.135.051-.05.73-.065 1.168-.024 1.205.112 2.779.487 3.935.938l.411.16-.017.1c-.064.362-.06.367.055.076.056-.14.127-.154.257-.052.076.06.085.084.066.184-.012.064-.08.228-.151.366-.191.367-.186.365-1.577.645-.985.198-1.524.33-1.592.392-.067.061-.07.156-.008.265.084.146.067.16-.2.161-.438.002-1.011.056-1.176.111-.227.077-.457.231-.564.38a.932.932 0 01-.156.17c-.062.044-.063.034-.071-.797zm1.81-.2c-.03-.223.022-.308.27-.432.118-.059.38-.163.583-.23.318-.106.346-.12.203-.106-.399.04-1.132.348-1.179.494-.022.07.007.204.07.329.062.124.076.11.053-.055zM8.243 7.428c-.136-.186-.14-.204-.035-.164.11.042.101.013-.051-.168-.073-.086-.127-.161-.12-.167a.526.526 0 01.163.06c.084.041.152.067.152.06a.492.492 0 00-.059-.1c-.115-.167-.115-.172.013-.118.066.027.125.044.132.037.027-.026-.284-.27-.468-.368-.215-.115-.523-.228-.62-.228-.055 0-.06.016-.046.144.031.278.369.712.79 1.018.114.083.22.15.235.15.016 0-.023-.07-.086-.156zm3.407-.485c.037-.02.06-.043.053-.051-.057-.057-1.361-.306-1.536-.294l-.135.01.128.044c.07.024.181.094.246.156.17.162.348.203.801.186.206-.008.406-.031.443-.051z" fill="#01069b"/></svg>