<svg xmlns="http://www.w3.org/2000/svg" width="16" height="16"><path d="M7.9 14.345l-.147-.05-.022-.365a4.03 4.03 0 00-.137-.913c-.045-.166-.07-.2-.285-.375-1.011-.83-1.787-1.923-2.158-3.04-.231-.696-.304-1.223-.275-2.002.051-1.442.451-2.73 1.195-3.856.381-.576.584-.805 1.352-1.519.18-.168.286-.356.29-.513 0-.08.03-.04.168.225.22.423.263.481.666.9.955.992 1.532 1.987 1.92 3.307a6.266 6.266 0 01-.04 3.612c-.336 1.058-1.14 2.209-1.992 2.852a.817.817 0 00-.266.315c-.088.18-.089.186-.089.829 0 .356-.007.647-.016.645a3.863 3.863 0 01-.164-.052z" fill="#01069b"/></svg>