<svg xmlns="http://www.w3.org/2000/svg" version="1.1" id="SVGRoot" viewBox="0 0 16 16">
  <g id="layer1">
    <path d="M4.864 11.202v-.13l.664-.0018c.4259-.0012.7042-.0155.776-.04.1017-.0347.1129-.0507.1218-.1742l.0099-.136-.5539-.0002c-.627-.0002-.7628-.0264-.9123-.176l-.1055-.1054V9.408h.416V9.9c0 .4185.008.4987.0528.536.0388.0323.1926.0469.576.0548l.5232.0107V9.408h.416v.8089c0 .9079.0025.897-.2341 1.0235-.1268.0678-.1769.0721-.9419.0816l-.808.01zm6.0829-.3064l-.1544-.1444-.5402-.0076c-.4915-.007-.5525-.0141-.6756-.08-.2192-.117-.2327-.1693-.2327-.8996v-.639l.0838-.0997c.1558-.1851.2494-.2061.9242-.2078.6672-.0016.8247.0295.9792.1938.0749.0797.077.0974.0868.7092.0055.3451.001.663-.0098.7064-.011.0434-.0623.1185-.1143.167l-.0944.0883.1977.1789.1977.1789h-.4936zm-.6368-.5749l-.1501-.1432.24.0006c.2332.0006.244.0042.3828.126.1332.117.1468.122.2.0737.0506-.0457.0572-.1137.0572-.5872 0-.7259.0353-.6866-.6178-.6866-.6703 0-.6302-.0425-.6302.6669 0 .5155.0038.549.0696.619.0618.0659.099.0741.3341.0741h.2646zm-7.4141.442c-.1325-.0354-.2105-.1633-.5305-.8694-.1807-.3989-.3405-.739-.355-.7557-.0146-.0167-.0265.3397-.0265.792v.8224H1.6v-.9097c0-1.006-.007-.9713.2115-1.0435.1789-.059.3878-.0227.4934.0857.0546.056.2092.3706.399.8115.1704.396.3138.724.3186.729.005.005.1208-.2398.2577-.544.4494-.999.4523-1.0042.5723-1.0612.2276-.108.5638-.0287.6253.1476.021.06.0342.4251.0342.9414v.8432h-.416v-.8224c0-.486-.0117-.81-.0287-.792-.0157.0167-.174.3539-.3515.7492-.1776.3954-.3556.7516-.3956.7916-.0744.0743-.2963.1185-.4242.0843zm4.304-.152v-.1467h.6489c.776 0 .7911-.0051.7911-.2689 0-.2664-.0355-.2845-.602-.3078-.3958-.0163-.4911-.0304-.6039-.089-.1938-.1006-.2341-.1747-.2341-.431 0-.2839.0564-.3925.2503-.482.1372-.0634.2116-.07.8937-.0798l.744-.0107v.2897l-.7052.0098c-.7973.011-.7655-.0002-.7663.2687-.0007.2445.0273.2583.5595.2766.3733.0128.4762.0276.6174.0884.23.0992.2626.1552.2626.4508 0 .2831-.047.3685-.267.486-.124.066-.182.0716-.861.0816l-.728.0108zm4.9889.1089c-.1863-.0315-.3248-.1029-.41-.2113-.0639-.081-.0669-.122-.0669-.8966V8.8h.416v.7822c0 .772.001.7828.0711.832.0587.0411.1845.0498.72.0498h.6489v.288l-.616-.0038c-.3388-.0021-.6822-.015-.7631-.0287zm1.9551-1.456c-.0792-.0594-.2454-.1588-.3693-.221-.1239-.0621-.2863-.1652-.3608-.229-.1467-.1256-.2515-.2936-.2086-.3344.0542-.0516.3795-.1272.5472-.1272.1177 0 .1689-.012.1604-.0374-.027-.0808-.5595-.4074-.802-.4918-.3007-.1047-.2898-.09-.6422-.861-.2854-.6243-.4327-.8461-.773-1.1639-.3929-.3669-.8092-.5819-1.1268-.5819-.1002 0-.1708-.0226-.2433-.0779-.1238-.0944-.4328-.2414-.5085-.2418-.0643-.0004-.1194.0909-.0965.1597.0088.0264.0873.145.1745.2636.104.1416.1959.3206.2676.5212.1167.3264.1976.4933.3036.6258l.066.0825-.0676.1895c-.1331.3724-.1066.8751.058 1.0994.0949.1293.1241.1127.1482-.0846.0246-.2023.1068-.4184.1831-.4814.0414-.0341.0614-.0094.1381.171.1146.2697.3656.6875.5364.893.1196.144.106.1356-.1366-.083-.1879-.1695-.3036-.3051-.3822-.448l-.1128-.205-.0358.1992c-.0426.2367-.0852.2968-.2105.2968-.3203 0-.5112-.7034-.3502-1.2903l.0683-.249-.0766-.1024c-.11-.147-.1766-.2879-.2783-.5887-.0572-.1694-.1404-.3313-.2307-.4492-.0777-.1014-.1579-.2159-.1782-.2543-.1071-.203.02-.4261.2425-.4261.1321 0 .538.1769.6125.267.0284.0343.0924.053.1812.053.4662 0 1.199.4976 1.638 1.1123.0786.1102.2115.355.2952.544.0838.189.2117.4617.2844.6059l.1322.2622.2646.125c.3682.1738.8725.5737.8725.6918 0 .0337-.0749.0542-.424.116-.1385.0245-.232.0568-.232.08 0 .0215.1198.1196.2662.218.2265.1522.4543.3713.5457.5248.033.0552.0238.0505-.1399-.0723zM10.6196 5.704c-.1043-.1677-.1043-.168-.0326-.168.0868 0 .165.0836.165.1764 0 .1232-.0526.1198-.1324-.0084z" id="path5320" fill="#01069b" stroke-width=".032" fill-opacity=".7059"/>
  </g>
</svg>
