<svg xmlns="http://www.w3.org/2000/svg" version="1.1" id="SVGRoot" viewBox="0 0 16 16">
  <g id="layer1">
    <path d="M7.6942 14.342c-.239-.0826-1.8739-1.0676-1.863-1.1224.0048-.0247.1384-.097.2968-.1607.1584-.0636.3236-.1407.3671-.1713.0435-.0306.109-.0556.1453-.0556.0364 0 .3463.1666.6886.3703.4022.2392.6452.3653.6867.3564.0354-.0076 1.1227-.6262 2.4163-1.3747l2.352-1.3609v-5.614L10.4 3.8353c-1.3112-.7556-2.4057-1.3684-2.4322-1.3616-.0664.0169-4.6743 2.6732-4.7438 2.7347-.0525.0464-.056.221-.056 2.8076 0 2.5865.0035 2.7612.056 2.8077.0936.083 1.346.793 1.4855.8423.312.11.6422.0295.8166-.1992l.0899-.1178.016-2.813c.0156-2.7381.0177-2.8144.0781-2.8586.044-.0321.157-.0454.387-.0454.2767 0 .333.0089.379.0598.0502.0553.0535.2724.045 2.936L6.512 11.504l-.0732.2025c-.1308.362-.309.5762-.6002.7216-.2201.11-.398.1463-.7186.1467-.4703.0007-.7374-.1018-1.696-.651-.7066-.405-.8831-.5465-.9981-.8006L2.352 10.96V5.104l.0838-.1788c.0461-.0983.1338-.2287.1949-.2897.1045-.1046 4.7303-2.811 5.0047-2.9281.1818-.0777.5643-.0724.75.0104.1493.0665 4.7443 2.7215 4.9025 2.8327.1281.09.2673.3076.3261.5099.0457.1573.0504.4896.0427 3.0381L13.648 10.96l-.0739.1632c-.0406.0897-.1342.2221-.208.2943-.171.1672-4.812 2.862-5.0514 2.9331-.2153.064-.4188.0611-.6205-.0086zm1.1538-3.6892c-.8367-.1024-1.421-.4115-1.6736-.8857-.192-.36-.2657-.8648-.1365-.934.0779-.0416.6587-.0436.7355-.0025.0365.0195.0725.1025.0992.2283.0485.2287.1909.4589.3494.565.3707.2485 1.4742.3097 2.1379.1187.1932-.0556.3823-.2074.4449-.357.0237-.057.0432-.1821.0432-.2781 0-.4135-.2778-.5233-1.792-.7084-1.3348-.163-1.8583-.5168-1.9114-1.2916-.0622-.9077.5322-1.4627 1.721-1.6068.3593-.0436 1.0339-.0027 1.406.085.5027.1188.949.4404 1.1295.8143.1616.3348.2313.752.1383.8292-.0295.0244-.167.0339-.4066.0279l-.362-.0091-.0686-.199c-.1347-.3918-.2991-.5485-.7022-.6697-.1496-.045-.3015-.0576-.688-.0573-.7133.0005-1.0152.0966-1.1866.3777-.0761.1249-.0823.3923-.0113.4936.1163.166.5126.2748 1.4219.3903.658.0836 1.192.2005 1.504.3293.4945.2041.7365.5787.7356 1.1385-.0009.5675-.2314.9752-.7155 1.2653-.2066.1238-.5744.254-.8602.3046-.2758.0488-1.061.067-1.3519.0315z" id="path4611" fill="#01069b" stroke-width=".032" fill-opacity=".7059"/>
  </g>
</svg>
