<svg xmlns="http://www.w3.org/2000/svg" width="16" height="16"><path d="M5.216 10.224v-.4H1.6V5.408h12.8v4.416H8v.8H5.216zm2.08-.656v-.352h1.408V6.112H5.856V9.92h1.44zm0-1.904v-.816H8V8.48h-.704zm-3.56.36l.009-1.176h.703v2.368h.704V6.112H2.304v1.53c0 .843.01 1.541.022 1.553.012.012.332.018.712.014l.69-.009zm7.104 0l.009-1.176h.702l.009 1.176.008 1.176.344.01.344.008v-2.37h.736v2.37l.344-.009.344-.009.008-1.544.009-1.544H9.408v1.53c0 .843.01 1.541.022 1.553.012.012.332.018.712.014l.69-.009z" fill="#01069b"/></svg>