<svg xmlns="http://www.w3.org/2000/svg" version="1.1" id="SVGRoot" viewBox="0 0 16 16">
  <g id="layer1">
    <path d="M5.0795 13.6313c-.4615-.1169-.7928-.5356-.923-1.1663-.1063-.5148-.0706-1.3778.0851-2.0626.029-.127.0476-.2347.0415-.2394-.0061-.0047-.1656-.0613-.3543-.1257C2.7789 9.645 1.9366 9.022 1.693 8.384c-.1033-.2705-.0765-.649.0656-.928.131-.2572.5008-.6355.8274-.8465.3275-.2117.8932-.4777 1.3223-.622.4227-.142.394-.0727.2802-.6755-.0987-.5227-.1088-1.514-.0191-1.8688.179-.708.5585-1.0695 1.1559-1.1008.3736-.0196.7003.0682 1.2186.3277.4172.2088.8355.4974 1.2402.8557l.2161.1913.2894-.2501c.573-.4951 1.1366-.8478 1.6368-1.024.1774-.0626.3196-.0863.5915-.0986.347-.0158.3642-.0134.56.0791.5096.2408.7747.7849.8164 1.676.0205.4386-.0217.9397-.121 1.4365-.0334.1672-.061.313-.0611.3242-.0002.0111.0678.0374.1511.0583.0833.021.3303.1091.549.196.9344.3708 1.5448.8219 1.8344 1.3555.099.1826.1052.2128.1052.514 0 .2916-.0085.337-.096.5119-.1215.2429-.4894.6313-.8036.8485-.3175.2195-.9029.5066-1.3404.6574-.1936.0667-.3564.1244-.3618.1283-.0054.0038.0192.1576.0548.3417.1962 1.017.1526 1.8847-.1247 2.4805-.1213.2607-.3714.5243-.5858.6175-.2063.0897-.5856.1176-.8627.0634-.57-.1115-1.2708-.5135-1.9722-1.1316l-.2364-.2083-.2624.2294c-.5465.4776-1.225.8875-1.7288 1.0445-.2526.0787-.7601.1129-.9525.0641zm.6898-.5589c.511-.133 1.0634-.4606 1.663-.986l.2161-.1894-.1753-.1894c-.1618-.1747-.566-.6747-.8242-1.0196l-.1078-.144-.3666-.04c-.2016-.022-.5818-.076-.8449-.12s-.489-.0692-.502-.056c-.0472.048-.1584.694-.1815 1.0543-.0574.8966.1068 1.4968.4579 1.6733.155.0779.4064.0842.6653.0168zm5.0877.0035c.487-.2084.661-1.2519.417-2.5-.0276-.1407-.06-.267-.0721-.2804-.0122-.0135-.158.0033-.324.0372-.3045.0623-.8408.1428-1.2014.1802l-.1955.0203-.353.4694c-.1941.2581-.4337.5619-.5325.675-.0987.113-.1785.2139-.1773.224.0033.0282.4365.3992.6698.5735.6834.5108 1.4059.7562 1.769.6008zm-2.7093-1.7158c.0636-.0704.2296-.272.3689-.448l.2533-.3201H7.2586l.1052.136c.2353.3043.6303.76.6588.76.0052 0 .0616-.0576.1251-.128zm.7888-1.3326l.2422-.0204.2226-.3556c.2749-.439.5172-.8585.7549-1.3062l.1819-.3426-.1286-.2556c-.181-.3603-.5793-1.049-.8275-1.4314l-.2105-.3243-.1617-.0194c-.2102-.0253-1.8094-.0253-2.0196 0l-.1617.0194-.2103.3243c-.2377.3668-.508.8357-.771 1.338l-.179.3418.1776.3462c.2169.423.457.8388.7577 1.3128.2116.3334.2354.3594.34.3706.2008.0216 1.7439.0235 1.993.0024zm-1.2123-.9358c-.2988-.0775-.6015-.3242-.7465-.6085-.1354-.2653-.135-.734.0009-1.0003.1088-.2133.3302-.4253.5499-.5266.1702-.0785.2395-.092.4715-.092.232 0 .3013.0135.4715.092.3455.1593.5969.4898.6427.845.09.6979-.3717 1.2731-1.047 1.3048-.1338.0063-.288-.0002-.343-.0144zM5.8587 9.48c-.1549-.2596-.3199-.5476-.3667-.64-.0468-.0924-.0925-.168-.1017-.168-.0368 0-.3983.9714-.3983 1.0704 0 .0249.1203.0596.328.0947.9414.1591.8735.2041.5387-.3571zm4.7159.3564c.2456-.0434.4524-.0847.4595-.0919.027-.027-.3723-1.1052-.4089-1.1039-.0095.0004-.0798.1192-.1564.264-.0765.1449-.2385.4305-.36.6347-.1214.2042-.2208.3797-.2208.39 0 .0233.123.0067.6866-.0929zm-6-.5964c.074-.2156.2138-.579.311-.8075.2023-.476.2084-.3751-.062-1.0245-.0953-.2288-.2134-.5384-.2624-.688-.049-.1496-.0998-.2838-.113-.2981-.0601-.0663-.95.277-1.3914.5368-.4767.2806-.7998.6126-.8777.9018-.1426.5296.6807 1.2337 1.9623 1.6783.1422.0493.2677.0905.2788.0914.0111.001.0806-.1746.1545-.3902zm7.3663.2451c.7085-.2458 1.2496-.5626 1.6055-.9398.2429-.2575.3342-.476.279-.6682-.1425-.4972-.8518-1.0063-1.9-1.3641-.1907-.0651-.3514-.1136-.3571-.1077-.0057.0059-.0773.1954-.159.4212a18.3392 18.3392 0 01-.3102.7887l-.1614.3783.1335.2965c.1607.357.3552.845.4327 1.086.0588.1827.0763.224.0949.224.0061 0 .16-.0517.3421-.1149zM5.5528 7.048c.0828-.154.244-.4357.3581-.626.1142-.1904.2026-.3508.1964-.3565-.0257-.0237-1.0772.1584-1.1119.1926-.0258.0255.3573 1.0699.3926 1.0699.0078 0 .082-.126.1648-.28zm5.258-.1691c.092-.247.1754-.4897.1853-.5394.0164-.0818.008-.0923-.089-.1125-.2628-.0544-1.0028-.174-1.0131-.1636-.0063.0062.1025.2034.2418.438.1393.2346.301.5166.3592.6266.0583.11.1155.2.1272.2.0117 0 .0966-.2021.1886-.4491zM5.392 5.6202c.2464-.0426.604-.0956.7945-.1178l.3464-.0403.2457-.3267c.1351-.1798.3608-.4602.5015-.6232.1408-.163.2748-.322.298-.3535.0377-.0512.0158-.0798-.208-.2718-.7307-.6268-1.4672-1.006-1.9554-1.0066-.3664-.0005-.5502.1575-.6877.5917-.0631.1991-.071.2916-.0703.832.0005.4519.0153.682.0577.896.0943.476.1139.5334.1753.5145.0299-.0093.2559-.0517.5023-.0943zm5.8467-.1804c.1753-.8708.1502-1.7703-.061-2.191-.0947-.1883-.2652-.3321-.4391-.3704-.466-.1025-1.389.3537-2.1863 1.0807l-.1677.1529.2256.256c.1241.1408.3699.4455.5462.6771l.3205.4212.1975.021c.2694.0287 1.1636.1701 1.3016.2058.1936.0502.2035.0406.2627-.2533zM8.708 5.352c-.0167-.0308-.1777-.233-.3578-.4492l-.3274-.3933-.0784.0733c-.0896.0837-.4652.5263-.5986.7052l-.0894.12h.741c.6958 0 .739-.0034.7106-.056z" id="path4943" fill="#01069b" stroke-width=".032" fill-opacity="1"/>
  </g>
</svg>
