<svg xmlns="http://www.w3.org/2000/svg" version="1.1" id="SVGRoot" viewBox="0 0 16 16">
  <g id="layer1">
    <path d="M10.1266 13.6006c-.3042-.061-.7542-.203-1.0205-.3222l-.1579-.0706.094-.0678c.0515-.0373.206-.1589.3431-.2702l.2494-.2023.2786.096c.8324.287 1.7306.2817 2.3156-.0137.5523-.279.983-.7724 1.1677-1.3376.1152-.3525.1214-.8413.0155-1.2202-.1389-.4966-.4704-1.0948-.8491-1.5322-.5055-.5836-1.4668-1.1786-2.3772-1.4712-.5998-.1928-.9797-.2604-1.6626-.296l-.4208-.0218-.0512.099c-.116.2242-.3823.4045-.6502.44-.5285.0701-1.0213-.4196-.9582-.9523.0238-.2009.1617-.4527.314-.5732.3693-.2926.95-.23 1.2054.13l.0858.121.496.0224c1.3249.0602 2.4621.4094 3.424 1.0516.9169.612 1.67 1.4857 1.985 2.3023.305.7908.3307 1.6653.069 2.3396-.3228.831-1.212 1.5145-2.278 1.751-.3706.0823-1.203.0815-1.6174-.0015zM4.688 13.596c-.322-.0402-.7584-.17-1.0697-.3181-.7706-.3667-1.2479-.9452-1.4633-1.7738-.0688-.2646-.0838-.3976-.087-.768-.0045-.4995.0345-.752.1801-1.168.1894-.5409.4562-.9686.884-1.4169.2234-.2341.6772-.6311.7214-.6311.0102 0 .0184.0252.0183.056-.0002.0308.0379.2057.0844.3887l.0847.3327-.2594.237c-.4566.4174-.8014.9443-.9706 1.4832-.0986.314-.1055.9325-.0138 1.2304.1844.5985.5933 1.1143 1.0803 1.3628.23.1173.6059.2189.9465.2557.9808.106 1.986-.179 3.0321-.8597.7642-.4973 1.4092-1.1632 1.7981-1.8563.1039-.185.109-.206.0627-.2572-.1078-.1191-.188-.3629-.1868-.568.002-.3565.1772-.6207.5135-.7747.1454-.0666.2054-.0763.3898-.063.5731.041.9339.5778.765 1.1383-.0756.2508-.354.5032-.6223.564-.0817.0187-.126.0751-.2976.38-.8488 1.508-2.1952 2.4992-3.9424 2.9026-.6738.1555-1.1222.1891-1.648.1234zm1.168-2.3664c-.1783-.0806-.337-.2295-.4236-.3975-.0924-.1792-.1142-.5244-.0431-.682l.054-.1199-.2068-.415c-.8472-1.6995-.9793-3.3932-.3915-5.0171.2138-.5904.5007-1.05.916-1.467 1.0403-1.0446 2.4438-1.277 3.632-.6012.2722.1548.7074.5445.9253.8285.4435.5782.741 1.3395.8654 2.2139.0259.1825.0474.3407.0477.3516.0005.0155-.7269-.1865-.7592-.2108-.0043-.0032-.0301-.1343-.0575-.2913-.1538-.8818-.6522-1.7754-1.2113-2.1715-.2743-.1943-.4316-.2676-.6928-.3225-.3016-.0634-.5644-.0592-.898.0146-.7645.169-1.243.4857-1.6428 1.087-.481.7234-.6817 1.401-.712 2.4027-.0323 1.0719.18 2.0187.642 2.8632l.1396.2552.2388.037c.2707.0418.4435.1349.5986.3224.1078.1304.1952.3723.1952.5403 0 .1659-.0976.4202-.2129.555-.2356.2752-.6738.3733-1.0031.2244z" id="path4710" fill="#01069b" stroke-width=".032" fill-opacity="1"/>
  </g>
</svg>
