<svg xmlns="http://www.w3.org/2000/svg" version="1.1" id="SVGRoot" viewBox="0 0 16 16">
  <g id="layer1">
    <path d="M2.655 12.8525c-.2311-.0498-.3492-.1377-.4646-.3461-.0878-.1585-.0944-.194-.0944-.508 0-.327.004-.3456.1224-.5853.1469-.2972.4218-.5837.852-.8878.2458-.1738.9287-.578 1.0396-.6154.0594-.02-.0405-.109-.4264-.3797-1.2435-.8722-1.5972-1.203-1.867-1.7463-.111-.2233-.1334-.3025-.1455-.512-.0566-.9836 1.0998-2.2582 2.8382-3.1284.7332-.367 1.431-.6252 2.0027-.7408.4408-.0892 1.4716-.0805 1.824.0153.596.162 1.02.4666 1.211.87.1867.3938.1498.997-.0915 1.5006C8.9095 6.928 7.7142 7.6397 6.24 7.7033c-.4772.0205-.7795-.023-1.0513-.1516-.237-.112-.4753-.3253-.5506-.4927-.098-.2174-.0122-.2816.148-.1107.2378.254.7688.386 1.2911.3207.9117-.1137 1.6716-.4662 2.2557-1.046.3164-.3142.4748-.5514.586-.8771.2692-.79-.2329-1.2476-1.3707-1.2493-.7728-.0012-1.6013.2281-2.5283.6998-.7429.378-1.3013.7618-1.7255 1.186-.3246.3247-.4918.5696-.5988.8773-.0669.1923-.0767.2694-.0657.5152.0114.2533.0265.3149.1223.4971.1378.2622.5273.6574 1.0238 1.0387.2024.1554.4762.3794.6084.4977l.2404.215.6-.3298c.5426-.2982.6252-.3552.8637-.5957.4251-.4288.8195-.6093 1.0854-.4968.1704.072.232.207.2332.5109.0005.1363.0036.248.0068.248.0033 0 .0423-.0138.0868-.0308.0985-.0374.2632.0125.3062.0927.0206.0385-.023.2645-.1447.7512-.1614.6448-.2143 1.0109-.1462 1.0109.046 0 .2287-.3758.6998-1.44.4587-1.036.526-1.2007.5833-1.4282.042-.1668.1396-.212.4658-.2166.1834-.0025.249.009.2913.0513.0514.0514.0505.0684-.0153.2948-.0958.3298-.1116.4816-.0738.7114.0322.1965.1536.5233.1943.5233.0262 0 .3743-.6067.581-1.0128.083-.1628.1833-.4192.223-.5697.0398-.1506.0908-.289.1133-.3077.0225-.0187.137-.0476.2544-.0642.2345-.0333.4534.0045.4837.0834.0096.0251-.0133.136-.051.2463-.142.4164-.1183.7892.0763 1.1994l.1095.2306.1864-.0757c.6278-.2552 1.4636-.2337 1.9981.0512.488.26.813.8126.745 1.2665-.044.294-.3898.6807-.6087.6807-.115 0-.0926-.0768.0498-.171.1809-.1197.3042-.3441.301-.5475-.0065-.4001-.3425-.7677-.8523-.9323-.3527-.1139-.9544-.1433-1.3104-.0641-.3455.0768-.355.0873-.2928.3229.0594.2248.047.4292-.037.608-.1979.4219-1.009.8516-1.2766.6763-.1706-.1118-.1605-.4547.0236-.8011.0552-.1039.2065-.3017.3363-.4397l.236-.2508-.1114-.2644c-.0613-.1454-.1362-.3687-.1665-.4963-.0302-.1276-.0594-.232-.0647-.232-.0053 0-.0845.14-.176.3111-.0914.1711-.2595.4599-.3736.6416l-.2075.3305.0544.1344c.0299.074.0618.2499.0709.391.014.2182.0058.2816-.055.4229-.1696.3943-.727.7125-1.2482.7125-.2272 0-.3204-.0602-.3204-.207 0-.1142.058-.1986.4956-.721.1253-.1496.275-.3385.3326-.4199l.1047-.1479-.1153-.229c-.0634-.126-.1504-.36-.1933-.5202-.0428-.1602-.0826-.296-.0884-.3017-.0057-.0058-.0956.194-.1997.4441-.1929.4632-.6768 1.4421-.895 1.8103-.144.2432-.3353.4426-.4529.472-.2888.0726-.4654-.2636-.4199-.7992.0134-.1577.01-.1807-.0175-.1165-.1116.2612-.4135.858-.4618.913-.1695.193-.423.2346-.6204.1019-.1381-.0929-.298-.407-.3687-.7247-.0644-.2891-.0453-.7642.0449-1.1142.0329-.1276.051-.232.04-.232-.0294 0-.5869.3204-.632.3633-.0306.0291-.0249.0819.0267.245.094.2965.0931.8225-.0017 1.1682-.1268.4624-.3899.853-.7633 1.1339-.457.3436-1.0137.4814-1.5116.3741zm.9565-.8105c.3263-.1565.5658-.402.7454-.7645l.1391-.2806v-.3704c0-.5257.0078-.5176-.3113-.3208-.3678.227-.8304.583-.9887.7609-.2685.3017-.4107.7514-.3034.9589.0992.1918.3415.1973.7189.0164zm5.4002-1.1354c.2656-.1996.3824-.3523.43-.5626.0265-.1168.0012-.1353-.0571-.0419-.0214.0342-.1292.1656-.2397.292-.298.3407-.3272.3819-.2719.3819.0255 0 .088-.0312.1387-.0694zm-2.6443-.1306c.2097-.3643.6633-1.6261.6959-1.936l.0177-.168h-.0957c-.2746 0-.653.5018-.8456 1.1214-.0583.1875-.0743.314-.075.5906-.0012.5687.1146.7187.3027.392zm4.6149-.429c.0475-.05.1087-.1445.136-.21.0537-.1286.0676-.4262.0212-.4548-.0371-.023-.2298.1912-.3329.3698-.0975.169-.1904.4376-.1653.4781.0251.0406.2363-.0728.341-.1832z" id="path4844" fill="#01069b" stroke-width=".032" fill-opacity="1"/>
  </g>
</svg>
