<svg xmlns="http://www.w3.org/2000/svg" version="1.1" id="SVGRoot" viewBox="0 0 16 16">
  <g id="layer1">
    <path d="M3.4689 14.0165c-.6932-.1033-1.208-.5495-1.4402-1.2485-.0539-.1622-.0593-.3487-.0694-2.384-.0122-2.4545 0-2.7004.1535-3.069.2373-.57.809-1 1.4152-1.0645.1012-.0108.184-.026.184-.034 0-.0079-.048-.0703-.1065-.1387-.3209-.3749-.4588-1.033-.3245-1.5485.1524-.5852.663-1.0959 1.2483-1.2483.2204-.0574.6127-.0637.8531-.0137.2168.045.531.1975.6932.3364.0696.0595.133.1083.141.1083.0078 0 .023-.0828.0339-.184.0453-.4265.3017-.8903.645-1.1673.1033-.0833.2968-.1971.4301-.253.2022-.0848.2958-.1041.5644-.1166.3872-.018.5873.0203.9056.1734.3068.1476.6253.4589.7667.7494.1112.2285.1977.5315.1977.6928 0 .058.0085.1053.019.1053.0103 0 .0748-.048.1432-.1065.3749-.3209 1.033-.4588 1.5485-.3245.61.159 1.1408.7111 1.2668 1.3182.0225.1082.0319.3162.0228.5044-.0184.382-.1074.6326-.3294.9284l-.1441.192.1846.0238c.7251.0935 1.309.6011 1.5041 1.3078.0517.187.0565.4098.0565 2.6044 0 2.2378-.004 2.4129-.0587 2.5903-.1903.6166-.5786 1.0103-1.2053 1.222-.168.0567-.3815.0596-4.656.064-2.464.0024-4.5534-.0065-4.6431-.0198zm1.9342-.4227c.6383-.2361 1.0397-.8105 1.0356-1.4818-.0028-.4502-.1619-.8108-.498-1.1287-.2599-.2458-.5055-.3492-1.0127-.426-.4068-.0618-.5993-.2063-.6706-.5036-.0966-.4026.2034-.7783.6215-.7783.3145 0 .5502.19.6303.508l.0348.1383.452-.0088.452-.0089-.0115-.144c-.0292-.3643-.1944-.7004-.4848-.9863-.281-.2765-.6472-.4201-1.0717-.4201-.5508 0-1.0044.2455-1.308.708-.1887.2874-.2527.5329-.2364.9064.0168.3817.0893.5953.2993.8804.2436.331.5799.5043 1.2075.6223.3545.0667.4973.1533.6056.367.1311.2589.1047.4841-.0815.6962-.343.3907-.9539.2586-1.098-.2374l-.049-.1685H3.328l.0004.12c.0017.5291.438 1.116.9916 1.334.3252.1281.7562.1328 1.0831.0118zm3.2006-.5458c.074-.3564.2278-1.098.3415-1.648.1137-.55.3004-1.45.4147-2 .1144-.55.208-1.0108.208-1.024 0-.0132-.2072-.024-.4605-.024h-.4606l-.0335.184c-.0184.1012-.1432.7096-.2773 1.352-.1341.6424-.259 1.2515-.2776 1.3536-.0186.1021-.0394.18-.0463.1732-.0113-.0113-.332-1.5319-.5515-2.6148l-.0875-.432-.4546-.0089c-.4007-.0078-.4545-.0027-.4545.0428 0 .0285.1502.774.3338 1.657.1836.8828.4221 2.0371.53 2.5651.108.528.2036.9852.2124 1.016.0144.05.0653.056.4724.056h.4563zm2.7883.614c.405-.065.7773-.2942 1.0027-.6172.2843-.4075.3075-.5288.3085-1.6128l.0008-.872h-1.568v.928h.64v.3932c0 .4678-.0539.6153-.2828.7744-.1212.0842-.1663.0964-.3572.0964-.1911 0-.2356-.012-.3548-.096-.0777-.0547-.168-.158-.2099-.24-.073-.143-.0735-.1534-.0737-1.392-.0002-1.1476.0046-1.2583.059-1.376.2593-.56 1.0871-.4722 1.2117.1284l.0265.1276.4546.0089.4546.0089v-.1062c0-.0584-.0215-.1886-.0477-.2894-.1177-.4518-.4101-.8087-.8352-1.0193-.2466-.1222-.2923-.1338-.585-.1478-.2627-.0127-.3563-.0036-.542.0529-.5666.172-.9844.6413-1.0962 1.2313-.05.2637-.0368 2.559.0162 2.8089.0645.3041.1886.5252.4304.7664.3812.3803.8272.5271 1.3475.4435zm1.8111-5.798c-.0116-.0748-.0575-.2113-.1021-.3033-.2464-.5088-.9475-.6638-1.4091-.3117l-.1036.079H9.6165l.6995-.7c.686-.6865.7024-.7003.8535-.7182.2083-.0247.3743-.115.5384-.293.1922-.2085.2401-.3362.2406-.6408.0004-.2144-.0131-.282-.0832-.416-.1782-.341-.4647-.5115-.8573-.5103-.1899.0006-.2725.0171-.3959.0791-.2833.1425-.5321.5002-.5321.7652 0 .065-.1503.2327-.704.786l-.704.7035V4.4224l.1097-.163c.2439-.3624.2191-.796-.0654-1.1452-.2547-.3126-.758-.4116-1.1396-.2242-.5255.258-.6852.9494-.3277 1.4181l.079.1036v1.9718l-.7-.6995c-.6865-.686-.7003-.7024-.7182-.8535-.0247-.2083-.115-.3743-.293-.5384-.2028-.1869-.3372-.2389-.6248-.2417-.2008-.002-.2697.0122-.4218.0869-.3448.1693-.5225.4617-.5194.8547.0023.2876.0541.4216.2413.6248.164.178.3301.2683.5384.293.1511.0179.1675.0317.8535.7182l.6995.7H4.4117l-.1036-.079c-.1748-.1334-.3394-.1862-.5801-.1863-.474-.0002-.8582.3304-.9311.8013L2.7759 8h10.4483z" id="path5895" fill="#01069b" stroke-width=".032" fill-opacity=".7059"/>
  </g>
</svg>
