<svg xmlns="http://www.w3.org/2000/svg" version="1.1" id="SVGRoot" viewBox="0 0 16 16">
  <g id="layer1">
    <path d="M1.6 8V1.6h12.8v12.8H1.6zm10.6349 5.2462c.3498-.117.5344-.2297.75-.4578.2877-.3041.4053-.6336.4012-1.1244-.0027-.3307-.1074-.6974-.2644-.9256-.206-.2995-.602-.5746-1.2317-.8561-.639-.2856-.8187-.3811-.9337-.4962-.2412-.2412-.2054-.6413.0729-.8133.091-.0563.1675-.0737.3287-.075.2767-.002.4673.09.6307.304.0663.087.1368.1582.1567.1582.0275 0 .8078-.5023.876-.564.0335-.0302-.0972-.2078-.3173-.4312-.3795-.385-.7107-.5073-1.376-.5077-.7112-.0004-1.281.3243-1.5601.889l-.1199.2426v.9346l.119.2406c.2342.474.5607.7307 1.4127 1.1105.8618.3841.9853.485 1.006.8216.0158.2546-.0647.3795-.3297.512-.1721.086-.2218.0958-.48.094-.4559-.003-.7346-.1478-1.0223-.5305l-.1357-.1806-.2284.138a16.8391 16.8391 0 01-.469.2708c-.1323.073-.2406.1511-.2406.1735 0 .0803.272.444.4579.6121.1984.1796.5629.3853.8443.4767.2292.0744.635.1122 1.0287.096.2586-.0107.395-.0352.624-.1118zM7.264 10.944V8.576h1.664V7.52H4.4567l-.0204.1485c-.0111.0816-.0203.3192-.0203.528v.3795H6.08v4.736h1.184z" id="path3756" fill="#01069b" stroke-width=".032" fill-opacity=".4706"/>
  </g>
</svg>
