<?xml version="1.0" encoding="UTF-8"?>
<svg xmlns="http://www.w3.org/2000/svg" xmlns:xlink="http://www.w3.org/1999/xlink" width="375pt" height="374.999991pt" viewBox="0 0 375 374.999991" version="1.2">
<g id="surface1">
<path style=" stroke:none;fill-rule:nonzero;fill:rgb(81.17981%,52.549744%,9.01947%);fill-opacity:1;" d="M 317.09375 117.21875 C 307.511719 121.480469 297.199219 124.351562 286.378906 125.636719 C 297.425781 119.023438 305.898438 108.546875 309.894531 96.046875 C 299.558594 102.179688 288.117188 106.628906 275.929688 109.03125 C 266.171875 98.640625 252.273438 92.140625 236.894531 92.140625 C 207.363281 92.140625 183.417969 116.085938 183.417969 145.625 C 183.417969 149.808594 183.886719 153.890625 184.804688 157.8125 C 140.359375 155.578125 100.941406 134.289062 74.5625 101.925781 C 69.960938 109.820312 67.328125 119.011719 67.328125 128.816406 C 67.328125 147.375 76.765625 163.75 91.113281 173.332031 C 82.355469 173.050781 74.101562 170.644531 66.894531 166.636719 C 66.890625 166.859375 66.890625 167.085938 66.890625 167.316406 C 66.890625 193.222656 85.320312 214.835938 109.789062 219.753906 C 105.300781 220.96875 100.578125 221.628906 95.699219 221.628906 C 92.253906 221.628906 88.898438 221.300781 85.636719 220.664062 C 92.441406 241.910156 112.195312 257.378906 135.589844 257.808594 C 117.289062 272.160156 94.238281 280.703125 69.171875 280.703125 C 64.859375 280.703125 60.597656 280.449219 56.414062 279.953125 C 80.085938 295.136719 108.195312 303.984375 138.394531 303.984375 C 236.773438 303.984375 290.5625 222.492188 290.5625 151.816406 C 290.5625 149.496094 290.515625 147.183594 290.414062 144.882812 C 300.859375 137.371094 309.929688 127.945312 317.09375 117.21875 Z M 317.09375 117.21875 "/>
</g>
</svg>
